<svg width="110" height="101" viewBox="0 0 110 101" fill="none" xmlns="http://www.w3.org/2000/svg">
<g clip-path="url(#clip0_55_458)">
<path d="M92.9871 0.5H16.4754C7.42053 0.5 0.0800781 7.21573 0.0800781 15.5V85.5C0.0800781 93.7843 7.42053 100.5 16.4754 100.5H92.9871C102.042 100.5 109.382 93.7843 109.382 85.5V15.5C109.382 7.21573 102.042 0.5 92.9871 0.5Z" fill="#383838"/>
<path d="M87.6073 65.7344C87.6073 65.7344 85.4725 71.3984 81.2029 77.2578C80.1355 79.0156 75.012 85.6562 68.821 85.6562C64.3379 85.6562 61.3492 82.7266 55.5852 82.7266C48.5403 82.7266 45.765 85.6562 41.2819 85.6562C38.9336 85.8516 36.5854 84.6797 34.0236 82.5312C17.5855 68.2734 16.7316 47.1797 22.9226 38.5859C26.7652 32.9219 33.1697 29.4062 40.2145 29.2109C45.765 29.2109 51.7425 32.5312 54.0908 32.5312C55.7987 32.5312 64.7649 28.625 69.8884 29.0156C76.9333 29.6016 81.8433 31.9453 85.4725 36.4375C75.012 41.125 71.3828 59.2891 87.6073 65.7344ZM70.3154 11.4375C72.0232 17.6875 64.5514 29.6016 53.4504 29.0156C52.8099 20.6172 60.7087 12.0234 70.3154 11.4375Z" fill="#F2F2F2"/>
</g>
<defs>
<clipPath id="clip0_55_458">
<rect width="109.302" height="100" fill="white" transform="translate(0.0800781 0.5)"/>
</clipPath>
</defs>
</svg>
