<svg width="118" height="101" viewBox="0 0 118 101" fill="none" xmlns="http://www.w3.org/2000/svg">
<g clip-path="url(#clip0_55_501)">
<path d="M113.486 38.3937C112.407 38.0925 111.205 37.95 108.674 37.6377C98.1992 37.208 72.3117 36.2014 59.1199 36.2014C45.9286 36.2014 20.0406 37.2074 9.56651 37.6377C7.03439 37.95 5.83169 38.0925 4.75333 38.3937C1.4599 39.1702 0.735352 40.3525 0.735352 42.7112V58.8772C0.735352 61.2364 3.26279 62.8262 5.00497 63.1468C6.74831 63.4696 7.85119 63.5987 9.68503 63.7732C19.0539 64.3536 40.7902 65.5633 59.1193 65.5825C77.4489 65.565 99.1841 64.3541 108.554 63.7732C110.387 63.5987 111.49 63.469 113.234 63.1468C114.976 62.8257 117.503 61.2364 117.503 58.8772V42.7112C117.503 40.3525 116.779 39.1702 113.486 38.3937Z" fill="url(#paint0_linear_55_501)"/>
<path d="M17.112 39.0297C22.2662 21.1 39.2016 7.94431 59.3049 7.94431C79.3505 7.94431 96.2515 21.0276 101.456 38.8855C101.472 38.9485 101.483 38.9812 101.501 39.0419C104.489 38.7062 107.166 38.1878 109.058 37.6828C109.024 37.5677 109.015 37.5444 108.985 37.4311C103.07 16.1589 83.069 0.505615 59.3049 0.505615C35.4609 0.505615 15.4072 16.2605 9.56534 37.6378C12.1932 38.3577 14.1181 38.6595 17.112 39.0297Z" fill="url(#paint1_radial_55_501)"/>
<path d="M101.333 62.5291C101.281 62.6884 101.223 62.8642 101.196 62.9512C95.7155 80.3799 79.0352 93.0563 59.3055 93.0563C39.42 93.0563 22.6346 80.1844 17.2872 62.546C14.0189 63.1246 12.9148 63.3447 9.68503 63.7744C15.6694 84.9426 35.6157 100.495 59.3055 100.495C83.0053 100.495 102.959 84.9263 108.932 63.7405C106.086 63.3891 104.41 63.1234 101.333 62.5291Z" fill="url(#paint2_radial_55_501)"/>
<path d="M18.1641 38.9909C19.4048 38.4783 20.6052 37.661 22.4764 37.1349C28.0549 22.6411 42.4372 12.32 59.3044 12.32C76.1189 12.32 90.4656 22.5775 96.0792 37.0012C96.0991 37.0503 96.1195 37.1098 96.1353 37.1466C97.101 37.4811 99.946 38.6348 100.831 39.0207C100.957 39.0236 101.225 39.033 101.501 39.0406C101.485 38.9887 101.47 38.9366 101.456 38.8841C96.2491 21.0321 79.3487 7.95288 59.3044 7.95288C39.2063 7.95288 22.2708 21.1027 17.115 39.0289C17.4127 39.0295 17.9796 39.0038 18.1641 38.9909Z" fill="url(#paint3_radial_55_501)"/>
<path d="M58.9844 9.16557C77.7916 9.16557 94.4632 20.38 100.778 38.8649L100.829 39.0219C100.927 39.0219 101.285 39.0348 101.5 39.0418C101.483 38.9747 101.465 38.9355 101.454 38.8853C96.2474 21.0333 79.347 7.9541 59.3026 7.9541C39.2045 7.9541 22.2691 21.1039 17.1132 39.0301C17.5149 39.0237 17.7082 39.0237 18.1635 38.9916C23.8093 21.4425 40.3156 9.16557 58.9844 9.16557Z" fill="white"/>
<path d="M100.267 62.58C98.9155 63.3349 97.2335 64.0612 95.8889 64.4856C95.8708 64.5289 95.7943 64.7203 95.778 64.7653C89.9618 78.7903 75.8229 88.6905 59.3049 88.6905C42.683 88.6905 28.4718 78.67 22.7233 64.5061C21.1767 64.077 18.8647 63.0225 17.9895 62.5823C17.662 62.5666 17.4857 62.5572 17.2843 62.5467C22.6317 80.1828 39.42 93.057 59.3055 93.057C79.1012 93.057 95.8247 80.3007 101.25 62.789C101.262 62.7551 101.322 62.5625 101.335 62.5298C101.021 62.542 100.542 62.58 100.267 62.58Z" fill="url(#paint4_radial_55_501)"/>
<path d="M112.55 39.5644C109.776 39.2269 107.884 39.2631 101.125 39.0301C100.818 39.0191 100.506 39.0097 100.189 38.9986C87.9341 38.5783 69.5256 38.0166 59.1193 38.0166C48.7135 38.0166 30.3056 38.5783 18.0491 38.9986C17.7327 39.0097 17.4215 39.0191 17.115 39.0301C10.3553 39.2631 8.46422 39.2269 5.68923 39.5644C2.91482 39.9047 0.735352 41.1197 0.735352 43.1859V58.1772C0.735352 60.2445 3.36088 61.9184 5.68864 61.9184C5.68864 61.9184 35.3162 63.7476 59.1193 63.7692C82.923 63.7476 112.55 61.9184 112.55 61.9184C114.878 61.9184 117.503 60.2445 117.503 58.1772V43.1859C117.503 41.1197 115.324 39.9047 112.55 39.5644Z" fill="url(#paint5_radial_55_501)"/>
<path d="M100.267 62.5799C94.4521 79.8283 78.0999 91.8437 59.629 91.8437C40.9701 91.8437 24.4135 80.8056 17.9878 62.5799C17.7519 62.5676 17.5184 62.5583 17.2878 62.5449C22.634 80.1815 39.4252 93.0557 59.3114 93.0557C79.2039 93.0557 95.9969 80.1733 101.338 62.5273C100.987 62.5437 100.63 62.563 100.267 62.5799Z" fill="white"/>
<path d="M100.3 62.5789L100.265 62.58C98.9138 63.3349 97.2329 64.0612 95.8872 64.4857C95.8691 64.5289 95.7926 64.7204 95.7768 64.7653C93.9366 69.2037 91.2626 73.2287 87.9406 76.6587C93.1402 72.8573 97.3812 68.0547 100.3 62.5789Z" fill="#8C8C8C"/>
<path d="M31.7898 77.7743C27.8792 74.0494 24.7662 69.5404 22.7228 64.5048C21.1762 64.075 18.8647 63.02 17.989 62.5798C18.9248 64.5199 20.0282 66.3746 21.2865 68.1228C23.8607 71.4752 26.9807 74.4633 30.5322 76.9919C30.9455 77.2628 31.3647 77.5232 31.7898 77.7743Z" fill="#4D4D4D"/>
<path d="M17.286 62.5473V62.5461L17.2726 62.5485C14.0148 63.1259 12.9096 63.3472 9.68445 63.7745C9.94426 64.697 10.2321 65.606 10.5456 66.5057L17.286 62.5473Z" fill="#252525"/>
<path d="M82.8448 46.2037C81.8709 44.0272 82.2166 44.2555 80.0966 44.1994C79.9244 44.141 79.4649 44.141 78.8356 44.141C78.2073 44.141 78.0917 44.141 77.5756 44.1994C75.5719 44.1994 75.9152 44.085 75.2286 45.5166C75.2286 45.5166 71.7892 53.2478 70.3016 56.4548L70.2444 56.5692C69.9583 57.1408 70.1305 57.1408 70.5877 57.1408H73.6814C73.9115 57.1408 74.0247 57.0287 74.0819 56.9119C74.0819 56.9119 74.5402 55.9381 75.113 54.5643H82.6731C83.2465 55.8821 83.647 56.8547 83.647 56.9119C83.7042 57.0842 83.8764 57.1408 84.0475 57.1408H87.2551C87.7134 57.1408 87.8284 57.2009 87.6568 56.7975C87.0829 55.4237 83.3603 47.4047 82.8448 46.2037ZM76.2573 51.8156C77.2312 49.5252 78.2062 47.292 78.2062 47.2342C78.264 47.1192 78.3784 47.062 78.5495 47.062C78.6073 47.0036 78.7801 47.0036 78.9512 47.0036C79.0662 47.0036 79.2366 47.0036 79.2944 47.062C79.4083 47.062 79.5251 47.1192 79.5799 47.2914C79.8111 47.9202 80.6682 49.8685 81.4698 51.8156H76.2573ZM35.0196 44.0266C35.3057 44.0266 35.3635 44.1405 35.3635 44.3699V56.6276C35.3635 56.9125 35.3057 57.0293 34.9629 57.0293H31.9842C31.6415 57.0293 31.5843 56.9709 31.5843 56.6276V44.3699C31.5843 44.1405 31.6415 44.0266 31.8698 44.0266H35.0196ZM28.6622 44.1405C29.0049 44.1405 29.0638 44.2543 29.0638 44.5421V56.742C29.0638 57.0865 29.0049 57.1437 28.6622 57.1437H25.1679C23.1069 57.1437 22.9347 57.1437 22.2481 55.9994C20.8159 53.7662 16.5195 47.1793 16.5195 47.1793V56.7432C16.5195 57.0883 16.4622 57.1443 16.1195 57.1443H13.5413C13.198 57.1443 13.1402 57.0883 13.1402 56.7432V44.5421C13.1402 44.2555 13.198 44.1405 13.5413 44.1405H16.5195C18.7532 44.1405 19.0393 44.0838 19.8427 45.2293C20.4721 46.261 25.684 54.2788 25.684 54.2788V44.5421C25.684 44.2555 25.7412 44.1405 26.0857 44.1405H28.6622ZM105.124 44.1405C105.47 44.1405 105.526 44.2543 105.526 44.5421V56.742C105.526 57.0865 105.469 57.1437 105.124 57.1437H101.633C99.5694 57.1437 99.3972 57.1437 98.7106 55.9994C97.2773 53.7645 92.982 47.1782 92.982 47.1782V56.7426C92.982 57.0871 92.9248 57.1431 92.5803 57.1431H90.0044C89.6611 57.1431 89.6021 57.0871 89.6021 56.7426V44.5421C89.6021 44.2555 89.6617 44.1405 90.0044 44.1405H92.982C95.2158 44.1405 95.503 44.0838 96.3034 45.2293C96.9912 46.261 102.147 54.2788 102.147 54.2788V44.5421C102.147 44.2555 102.204 44.1405 102.548 44.1405H105.124ZM48.1361 49.1253C50.4277 49.3536 52.0893 49.7541 52.547 51.9312C52.547 52.1017 52.6048 52.675 52.6048 53.3056C52.6048 53.7073 52.6048 54.221 52.4898 54.6799C52.0899 56.7415 50.5421 57.142 48.1379 57.142H38.5139C38.17 57.142 38.1122 57.0859 38.1122 56.7415V54.6799C38.1122 54.3355 38.17 54.2782 38.5139 54.2782H48.2494C48.6511 54.2782 48.7655 54.1644 48.8221 53.8766V53.361V53.0177C48.7643 52.7877 48.7077 52.4444 48.1927 52.3884C47.1039 52.3311 43.8974 52.0439 41.7197 51.8156C38.9132 51.5289 38.2266 50.3274 38.1116 49.2958C38.0544 48.9513 38.0544 48.4936 38.0544 48.0925C38.0544 47.7486 38.0544 47.2336 38.1116 46.832C38.5133 44.9981 39.8882 44.1405 42.2925 44.1405H51.6281C51.9731 44.1405 52.0881 44.1988 52.0881 44.4843V46.6043C52.0881 46.8886 51.9731 47.0042 51.6281 46.947H42.4647C42.0636 46.947 41.8925 47.1186 41.8341 47.5191V48.0347C41.8341 48.3213 42.0064 48.5508 42.4069 48.6062C43.4975 48.723 46.8756 49.0091 48.1361 49.1253ZM64.6874 49.1253C66.9807 49.3536 68.6406 49.7541 69.0994 51.9312C69.0994 52.1017 69.1567 52.675 69.1567 53.3056C69.1567 53.7073 69.1567 54.221 69.0422 54.6799C68.6423 56.7415 67.0963 57.142 64.6897 57.142H55.0663C54.7224 57.142 54.6646 57.0859 54.6646 56.7415V54.6799C54.6646 54.3355 54.7224 54.2782 55.0663 54.2782H64.8036C65.2041 54.2782 65.3168 54.1644 65.3757 53.8766V53.361V53.0177C65.3162 52.7877 65.2029 52.4444 64.7452 52.3884C63.6575 52.3311 60.4499 52.0439 58.2739 51.8156C55.4662 51.5289 54.8374 50.3274 54.6646 49.2958C54.6074 48.9513 54.6074 48.4936 54.6074 48.0925C54.6074 47.7486 54.6074 47.2336 54.6646 46.832C55.0663 44.9981 56.4406 44.1405 58.8455 44.1405H68.1828C68.525 44.1405 68.6411 44.1988 68.6411 44.4843V46.6043C68.6411 46.8886 68.525 47.0042 68.1828 46.947H59.0177C58.6172 46.947 58.4461 47.1186 58.3877 47.5191V48.0347C58.3877 48.3213 58.5028 48.5508 58.9617 48.6062C60.0499 48.723 63.428 49.0091 64.6874 49.1253Z" fill="url(#paint6_radial_55_501)"/>
</g>
<defs>
<linearGradient id="paint0_linear_55_501" x1="59.1193" y1="1.98143" x2="59.1193" y2="83.3692" gradientUnits="userSpaceOnUse">
<stop offset="0.194" stop-color="white"/>
<stop offset="0.208" stop-color="#F8F8F8"/>
<stop offset="0.366" stop-color="#AEAEAE"/>
<stop offset="0.513" stop-color="#707070"/>
<stop offset="0.647" stop-color="#404040"/>
<stop offset="0.764" stop-color="#1D1D1D"/>
<stop offset="0.86" stop-color="#080808"/>
<stop offset="0.922"/>
</linearGradient>
<radialGradient id="paint1_radial_55_501" cx="0" cy="0" r="1" gradientUnits="userSpaceOnUse" gradientTransform="translate(26.3408 -19.5954) scale(81.424 81.424)">
<stop offset="0.202" stop-color="white"/>
<stop offset="0.382" stop-color="#FDFDFD"/>
<stop offset="0.487" stop-color="#F4F4F4"/>
<stop offset="0.573" stop-color="#E6E6E6"/>
<stop offset="0.648" stop-color="#D2D2D2"/>
<stop offset="0.689" stop-color="#C4C4C4"/>
<stop offset="1" stop-color="#333333"/>
</radialGradient>
<radialGradient id="paint2_radial_55_501" cx="0" cy="0" r="1" gradientUnits="userSpaceOnUse" gradientTransform="translate(223.392 110.825) scale(169.576 169.576)">
<stop offset="0.202" stop-color="white"/>
<stop offset="0.368" stop-color="#E4E4E4"/>
<stop offset="0.594" stop-color="#C4C4C4"/>
<stop offset="1" stop-color="#333333"/>
</radialGradient>
<radialGradient id="paint3_radial_55_501" cx="0" cy="0" r="1" gradientUnits="userSpaceOnUse" gradientTransform="translate(45.8982 73.4036) scale(52.0604 52.0604)">
<stop offset="0.202" stop-color="white"/>
<stop offset="0.368" stop-color="#E4E4E4"/>
<stop offset="0.594" stop-color="#C4C4C4"/>
<stop offset="1" stop-color="#333333"/>
</radialGradient>
<radialGradient id="paint4_radial_55_501" cx="0" cy="0" r="1" gradientUnits="userSpaceOnUse" gradientTransform="translate(87.9096 126.637) scale(98.7821 98.7821)">
<stop offset="0.202" stop-color="white"/>
<stop offset="0.368" stop-color="#E4E4E4"/>
<stop offset="0.594" stop-color="#C4C4C4"/>
<stop offset="1" stop-color="#333333"/>
</radialGradient>
<radialGradient id="paint5_radial_55_501" cx="0" cy="0" r="1" gradientUnits="userSpaceOnUse" gradientTransform="translate(58.3369 10.8062) scale(78.4984 78.4984)">
<stop offset="0.202" stop-color="white"/>
<stop offset="0.397" stop-color="#FDFDFD"/>
<stop offset="0.51" stop-color="#F4F4F4"/>
<stop offset="0.603" stop-color="#E6E6E6"/>
<stop offset="0.684" stop-color="#D2D2D2"/>
<stop offset="0.728" stop-color="#C4C4C4"/>
<stop offset="1" stop-color="#4D4D4D"/>
</radialGradient>
<radialGradient id="paint6_radial_55_501" cx="0" cy="0" r="1" gradientUnits="userSpaceOnUse" gradientTransform="translate(60.155 18.667) scale(52.8731 52.8731)">
<stop offset="0.111" stop-color="#4D4D4D"/>
<stop offset="0.248" stop-color="#494949"/>
<stop offset="0.355" stop-color="#404040"/>
<stop offset="0.451" stop-color="#2F2F2F"/>
<stop offset="0.541" stop-color="#181818"/>
<stop offset="0.611"/>
</radialGradient>
<clipPath id="clip0_55_501">
<rect width="116.768" height="100" fill="white" transform="translate(0.735352 0.5)"/>
</clipPath>
</defs>
</svg>
