<svg width="101" height="101" viewBox="0 0 101 101" fill="none" xmlns="http://www.w3.org/2000/svg">
<g clip-path="url(#clip0_55_497)">
<path d="M100.179 41.8045C101.542 49.6117 80.2883 59.8352 52.7038 64.639C25.1234 69.4428 1.66048 67.0058 0.300374 59.1944C-1.05973 51.3873 20.1997 41.1658 47.7801 36.3641C75.3625 31.5562 98.8213 33.9953 100.179 41.8045Z" fill="#034EA2"/>
<path d="M71.7867 45.2751L74.1637 53.3923H74.2196L74.079 45.2751H76.638V55.5069H72.9587L70.4038 47.1106H70.348L70.4906 55.5069H67.9461V45.2751H71.7867ZM29.1252 55.6144L27.7486 46.2342H27.6907L26.2748 55.6144H23.4822L25.3983 45.2751H29.9975L31.9074 55.6144H29.1252ZM42.7593 46.3189L41.0313 55.6144H38.4082L36.6781 46.3189H36.6223L36.5583 55.6144H33.9683L34.1977 45.2751H38.4165L39.6919 53.1794H39.7477L41.0251 45.2751H45.2418L45.4651 55.6144H42.8813L42.8131 46.3189H42.7593ZM19.129 52.6978C19.2303 52.9479 19.1993 53.2704 19.1518 53.4647C19.065 53.8078 18.8314 54.1592 18.1451 54.1592C17.4961 54.1592 17.1034 53.7871 17.1034 53.2207V52.2203H14.3294L14.3273 53.0202C14.3273 55.325 16.1422 56.0216 18.0873 56.0216C19.9579 56.0216 21.4979 55.3829 21.7418 53.659C21.8679 52.766 21.7728 52.181 21.7314 51.9599C21.2953 49.7957 17.37 49.1487 17.0786 47.9395C17.0289 47.7328 17.0434 47.5116 17.0682 47.3938C17.1406 47.0651 17.3659 46.7013 18.0128 46.7013C18.6164 46.7013 18.974 47.0755 18.974 47.6398V48.2785H21.5516V47.5529C21.5516 45.2999 19.53 44.9485 18.0666 44.9485C16.2269 44.9485 14.7242 45.5562 14.4493 47.2388C14.3749 47.7038 14.3645 48.1172 14.472 48.6361C14.9247 50.7465 18.5958 51.3584 19.129 52.6978ZM52.7493 52.6792C52.8506 52.9272 52.8175 53.2414 52.772 53.4357C52.6873 53.7788 52.4558 54.124 51.7737 54.124C51.135 54.124 50.7443 53.752 50.7443 53.198L50.7422 52.2058H47.9972L47.9931 52.9954C47.9931 55.2774 49.7914 55.9658 51.7158 55.9658C53.5658 55.9658 55.0913 55.3353 55.3331 53.628C55.4592 52.7412 55.3703 52.1645 55.3248 51.9475C54.8908 49.8039 51.0068 49.1632 50.7174 47.9643C50.6678 47.7576 50.6823 47.5405 50.7071 47.4289C50.7815 47.0961 51.0027 46.7427 51.6434 46.7427C52.2429 46.7427 52.5922 47.1065 52.5922 47.6687V48.3012H55.1512V47.5819C55.1512 45.3536 53.1462 45.0043 51.6951 45.0043C49.8761 45.0043 48.3858 45.6037 48.1171 47.276C48.0427 47.7348 48.0344 48.14 48.1419 48.6567C48.5863 50.7465 52.2222 51.3542 52.7493 52.6792ZM61.4329 54.0682C62.1502 54.0682 62.3734 53.5721 62.423 53.3179C62.4437 53.2063 62.4499 53.0575 62.4478 52.9231V45.2709H65.0626V52.6875C65.0688 52.8776 65.0502 53.2683 65.0399 53.3654C64.8559 55.296 63.3304 55.9224 61.4308 55.9224C59.5292 55.9224 58.0016 55.296 57.8197 53.3654C57.8115 53.2683 57.7929 52.8756 57.797 52.6875V45.2709H60.4097V52.921C60.4097 53.0554 60.4139 53.2063 60.4345 53.3158C60.4924 53.5701 60.7094 54.0682 61.4329 54.0682ZM83.0024 53.9587C83.7506 53.9587 84.0132 53.4853 84.0607 53.2104C84.0793 53.0926 84.0855 52.9479 84.0834 52.8177V51.317H83.023V49.8081H86.69V52.5841C86.6879 52.7784 86.6838 52.921 86.6527 53.2662C86.4812 55.1472 84.8482 55.819 83.0168 55.819C81.1813 55.819 79.5525 55.1472 79.3768 53.2662C79.3479 52.921 79.3437 52.7784 79.3396 52.5841L79.3417 48.2309C79.3417 48.047 79.3644 47.7224 79.3851 47.5488C79.6145 45.6161 81.1813 44.994 83.0168 44.994C84.8503 44.994 86.4564 45.612 86.6465 47.5488C86.6796 47.8775 86.6693 48.2309 86.6693 48.2309V48.5761H84.0628V47.9974C84.0648 47.9994 84.0586 47.7514 84.0297 47.6046C83.9863 47.3752 83.7878 46.8502 82.9982 46.8502C82.2438 46.8502 82.0247 47.3462 81.9689 47.6046C81.9379 47.741 81.9254 47.925 81.9254 48.0924V52.8218C81.9234 52.952 81.9317 53.0967 81.9523 53.2145C81.9937 53.4853 82.2541 53.9587 83.0024 53.9587Z" fill="white"/>
</g>
<defs>
<clipPath id="clip0_55_497">
<rect width="100" height="100" fill="white" transform="translate(0.238647 0.5)"/>
</clipPath>
</defs>
</svg>
