<svg width="138" height="101" viewBox="0 0 138 101" fill="none" xmlns="http://www.w3.org/2000/svg">
<g clip-path="url(#clip0_55_484)">
<path d="M25.9299 82.0806V93.5889C25.9299 96.6566 25.6526 98.1958 24.0773 98.6258L23.481 98.7864L24.4778 100.5L24.7901 100.461C28.0171 100.019 29.7208 97.9561 29.7208 94.4584V82.0806H25.9299Z" fill="black"/>
<path d="M33.2131 97.2053H36.9814V82.0813H33.2131V97.2053Z" fill="black"/>
<path d="M64.4268 81.8135C59.6498 81.8135 56.6825 84.8128 56.6825 89.6366C56.6825 94.4712 59.6498 97.4735 64.4268 97.4735C69.2038 97.4735 72.1684 94.4712 72.1684 89.6366C72.1684 84.8128 69.2038 81.8135 64.4268 81.8135ZM64.4268 83.93C66.6827 83.93 68.1993 86.2341 68.1993 89.6366C68.1993 93.0526 66.6827 95.3438 64.4268 95.3438C62.1682 95.3438 60.6503 93.0526 60.6503 89.6366C60.6503 86.2341 62.1682 83.93 64.4268 83.93Z" fill="black"/>
<path d="M101.361 81.8135C96.5828 81.8135 93.6141 84.8128 93.6141 89.6366C93.6141 94.4712 96.5828 97.4735 101.361 97.4735C106.137 97.4735 109.102 94.4712 109.102 89.6366C109.102 84.8128 106.137 81.8135 101.361 81.8135ZM101.361 83.93C103.613 83.93 105.131 86.2341 105.131 89.6366C105.131 93.0526 103.613 95.3438 101.361 95.3438C99.0999 95.3438 97.5819 93.0526 97.5819 89.6366C97.5819 86.2341 99.0999 83.93 101.361 83.93Z" fill="black"/>
<path d="M129.992 81.8135C125.215 81.8135 122.248 84.8128 122.248 89.6366C122.248 94.4712 125.215 97.4735 129.992 97.4735C134.772 97.4735 137.742 94.4712 137.742 89.6366C137.742 84.8128 134.772 81.8135 129.992 81.8135ZM129.992 83.93C132.252 83.93 133.768 86.2341 133.768 89.6366C133.768 93.0526 132.252 95.3438 129.992 95.3438C127.736 95.3438 126.221 93.0526 126.221 89.6366C126.221 86.2341 127.736 83.93 129.992 83.93Z" fill="black"/>
<path d="M18.6201 82.0676C18.6201 82.0676 15.1532 86.1134 13.0768 88.5381C10.6602 87.6405 7.55917 87.1584 3.93825 89.3821C0.512909 91.4987 -2.06151 97.8347 4.13947 97.8615C7.21384 97.8749 10.2047 96.6825 13.989 92.1949C14.0962 92.0757 14.2905 91.847 14.3963 91.7264C16.0855 92.9589 17.4412 94.6868 18.6201 97.2053H22.3713V82.0679L18.6201 82.0676ZM18.6201 86.7027V92.3575C17.8551 91.5122 16.9189 90.6949 15.8607 89.985C16.9163 88.7271 18.0923 87.3336 18.6201 86.7027ZM9.96867 89.8846C10.5697 89.8955 11.1448 89.999 11.6463 90.2125C9.42124 92.8917 7.63685 94.6866 6.23162 95.5306C3.0099 97.4596 2.12428 93.5751 6.12967 90.9763C7.19799 90.2856 8.64637 89.8607 9.96867 89.8846Z" fill="black"/>
<path d="M109.61 82.0806V84.9353C111.162 84.6929 113.385 84.5857 113.766 84.5857V97.2049H117.61V84.5857C117.992 84.5857 120.211 84.6929 121.766 84.9353V82.0806H109.61Z" fill="black"/>
<path d="M75.9453 82.0806C75.5983 85.1094 74.2999 94.1368 73.7011 97.2045H76.7635C76.8024 95.7444 77.1774 91.4054 77.5243 88.6191L77.5111 88.3229L81.6785 97.2045H82.7771L86.99 88.4437L86.9779 88.7395C87.2551 91.4053 87.5915 95.6908 87.6397 97.2045H91.9226C90.6902 90.1864 90.0606 85.1094 89.6788 82.0806H87.4709L82.8158 91.3372L78.4006 82.0806H75.9453Z" fill="black"/>
<path d="M40.5802 82.0811V97.205H43.345V88.4173L43.294 87.4259C43.4133 87.6269 43.5982 87.9083 43.7616 88.0824L52.0097 97.205H54.2158V82.0811H51.455V90.0785L51.5045 91.0964C51.3852 90.8955 51.2246 90.641 51.0853 90.4937L43.345 82.0811H40.5802Z" fill="black"/>
<path d="M71.0192 0.500003C69.8323 0.500003 68.865 1.00923 67.9299 2.00053L47.279 26.1129C45.078 25.3494 41.24 24.2376 36.4336 23.7687C27.7584 22.9516 21.043 26.3542 17.1609 30.6945C8.35302 40.5271 14.7066 53.856 27.0697 53.856C35.1836 53.856 40.4348 50.5473 48.2151 42.0676C50.2915 39.8171 52.2743 37.3656 52.2743 37.3656C58.001 39.0401 63.1356 39.817 71.0285 39.817V50.5875C71.0285 52.1012 72.257 53.3336 73.7721 53.3336H79.5484C81.0621 53.3336 82.2905 52.1012 82.2905 50.5875C82.2905 50.5875 82.2905 45.1354 82.2891 37.9418C86.265 36.7362 89.8941 35.2626 93.8164 33.1326L93.8017 56.1066C91.6637 57.5534 85.606 61.7194 85.606 61.7194C81.1076 64.921 82.3212 67.5733 84.4163 69.3952C86.5664 71.2572 89.37 71.9405 92.4417 71.9405C99.2013 71.9405 104.714 66.1266 104.739 57.0173C115.728 50.3462 128.614 41.6656 128.046 30.5604C128.046 26.7158 124.794 23.7419 121.222 23.7419C117.466 23.7419 114.422 26.7963 114.422 30.5471C114.422 32.744 115.46 34.6863 117.072 35.9322C115.1 40.4868 110.536 44.546 104.757 48.6854V26.555C104.725 25.0011 103.436 23.7419 101.874 23.7419H96.3202C92.655 23.7419 89.1266 27.0106 82.3027 29.4353L82.2851 3.12566H82.2905L82.2851 3.11239C82.2222 1.65223 81.0219 0.5 79.5483 0.5L71.0192 0.500003ZM99.3055 1.9342C94.7535 1.9342 91.0574 5.63149 91.0574 10.1848C91.0574 14.7528 94.7535 18.45 99.3055 18.45C103.864 18.45 107.56 14.7528 107.56 10.1848C107.56 5.63149 103.864 1.9342 99.3055 1.9342ZM71.0285 15.0883H71.0339V31.2036C66.9575 31.2974 62.9562 30.7613 58.703 29.7432L58.7041 29.73H58.6988L71.0285 15.0883ZM32.8158 32.0129C33.9126 32.0031 35.0353 32.0902 36.1697 32.2484C38.5461 32.5833 39.8535 33.012 40.9814 33.4675L36.7552 37.9282C33.4558 41.4245 29.6217 46.14 25.6846 46.14C24.0959 46.14 22.9211 45.3497 22.2031 44.1709C21.0095 42.2151 21.0926 39.2009 22.676 36.9906C25.3092 33.3172 28.8986 32.0476 32.8158 32.0129Z" fill="black"/>
</g>
<defs>
<clipPath id="clip0_55_484">
<rect width="137.366" height="100" fill="white" transform="translate(0.375854 0.5)"/>
</clipPath>
</defs>
</svg>
