<svg width="100" height="101" viewBox="0 0 100 101" fill="none" xmlns="http://www.w3.org/2000/svg">
<g clip-path="url(#clip0_55_519)">
<path d="M50.0137 1.30469C48.8242 1.30469 46.5 1.41797 46.4141 1.44727C46.8672 1.56055 11.6172 19.6387 11.6172 19.4688C11.6172 19.5254 11.5879 19.582 11.5605 19.6113C4.5625 28.168 0.425781 39.0195 0.425781 50.9219C0.425781 60.7266 3.28711 69.8496 8.18945 77.5566C8.21875 77.5273 20.6855 89.627 20.543 90.8184C28.7891 96.9102 38.9609 100.51 50.0117 100.51C53.8652 100.51 57.6055 100.057 61.2051 99.2344C61.1484 98.8379 61.0918 98.4414 61.0352 98.0723L60.3828 93.5098C60.1836 92.2637 59.1641 83.7617 59.1641 83.7617V83.7324L60.2402 83.3066C60.2402 83.3066 61.6856 83.3633 61.6289 83.3633C61.6289 83.3633 63.0742 91.9199 63.3281 93.3945L63.6113 94.9531C63.7246 95.5762 63.8106 96.1992 63.9238 96.8516C64.0098 97.3906 64.0938 97.9004 64.1797 98.4375C65.3418 98.0977 66.5039 97.7012 67.6367 97.248C67.4668 96.2852 67.2676 95.2637 67.2676 95.123L66.6719 91.6387C65.9062 88.0391 65.3965 85.377 65.0566 83.6191C65 83.3633 64.9141 82.9102 64.9141 82.9102L66.0195 82.457L67.4922 82.5703C67.4922 82.5703 69.3633 90.8164 69.8438 93.3105L70.3828 96.0879C71.4023 95.6348 72.3945 95.1523 73.3574 94.6152L73.0449 93.1992C73.0156 93.0566 72.9883 92.8867 72.9316 92.7168C72.3086 89.9395 70.6074 82.1758 70.6074 82.1758L71.9668 81.6367L73.2695 81.8359C73.2695 81.8359 74.9688 88.9766 76.0469 93.0566C77.918 91.8945 79.7305 90.5918 81.4316 89.2031C81.4316 89.2031 97.1289 65.6836 97.2422 65.7695C98.7148 61.0664 99.5098 56.0781 99.5098 50.8926C99.6016 23.5195 77.3848 1.30469 50.0137 1.30469Z" fill="#A3080C"/>
<path d="M62.4238 26.0137C62.4238 26.0137 56.2187 14.3398 53.6973 12.582C51.1758 10.8242 47.0098 9.74805 44.1191 10.0879C40.4629 10.541 32.1055 14.9609 31.5664 15.1035C31.5664 15.1602 28.4492 18.9863 27.6563 22.9531C27.4863 23.832 24.2559 37.8574 24.2559 37.8574L30.3477 55.4531L52.082 65.8242L60.0449 57.1543C60.0449 57.1543 61.0645 48.5684 63.2188 42.1367C65.373 35.7051 64.6914 32.1914 64.6914 32.1914L62.4238 26.0137Z" fill="#FFF1E2"/>
<path d="M37.6309 70.8984C37.5742 70.9277 37.5176 70.9551 37.4609 70.9844C37.4883 70.9551 37.5449 70.9258 37.6309 70.8984Z" fill="white"/>
<path d="M35.8457 37.3477C35.5059 37.5469 35.25 37.6035 35.0801 37.6875C34.9102 37.7734 34.6543 37.9707 34.7402 38.2832C34.7969 38.623 34.9102 38.7363 34.9395 38.9922C34.9687 39.248 34.8535 39.7012 34.543 40.2383C34.2598 40.7773 33.7773 41.1445 33.5234 41.3145C33.2676 41.4844 33.0977 41.5137 32.957 41.5977C32.9277 41.627 32.9004 41.6836 32.8711 41.8535C32.9004 41.8242 32.9004 41.8242 32.9277 41.8242C32.9844 41.7949 33.0977 41.7949 33.2109 41.7676C33.3242 41.7383 33.3809 41.7109 33.4375 41.7109C33.4668 41.7109 33.7207 41.6816 33.75 41.6543C33.7793 41.6543 34.5156 41.4844 34.9687 41.2852C35.4219 41.0859 36.1875 40.6895 36.6406 40.1523C36.9805 39.7559 37.377 39.0469 37.4062 38.3105C37.4062 38.168 37.4062 38.084 37.4062 38.084C37.4062 38.084 37.4062 38.084 37.4355 38.084C37.3496 38.084 37.293 38.0547 37.2363 38.0273C37.123 37.9414 37.0098 37.8574 36.6406 37.4609C36.4141 37.2051 36.4141 37.0352 36.5547 36.8086C36.5547 36.8086 36.5547 36.8086 36.5547 36.8379C36.3828 36.9512 36.1855 37.1504 35.8457 37.3477Z" fill="white"/>
<path d="M54.0371 35.0252C54.0371 35.0252 53.8379 35.0545 53.7539 35.0819C53.6973 35.1111 53.584 35.1385 53.5273 35.2518C53.4707 35.3377 53.4414 35.5076 53.584 35.7049C53.7266 35.8748 53.9531 36.2147 53.9238 36.4979C53.9238 36.6111 53.9238 37.0369 53.8105 37.3475C53.668 37.6873 53.498 38.0272 53.3574 38.1697C53.3008 38.2557 52.9609 38.6229 52.9316 38.8494C52.9316 38.9061 52.9316 38.9627 52.9609 39.0194C52.9609 38.9901 52.9902 38.9901 52.9902 38.9627C53.0762 38.8768 53.2461 38.7928 53.5293 38.7069C53.8984 38.5936 54.1816 38.451 54.3789 38.2811C54.3496 38.3104 54.3496 38.3377 54.3223 38.367C54.3516 38.3104 54.3789 38.2537 54.4082 38.2244C54.5215 38.1385 55.9941 37.1483 56.0234 35.5604C56.0527 34.9647 55.2578 34.8807 54.9473 34.8807C54.7168 34.8553 54.2637 35.0526 54.0371 35.0252Z" fill="white"/>
<path d="M38.3945 46.0195C38.3945 46.0195 44.2324 47.834 47.0371 44.5742C49.8418 41.3144 54.6602 46.3027 54.9707 47.7754C55.2813 49.248 47.7168 53.3008 45.4219 53.3867C43.127 53.4726 34.0879 52.2539 34.0879 51.3183C34.0879 50.3828 38.3945 46.0195 38.3945 46.0195Z" fill="white"/>
<path d="M62.3672 22.8124C61.4316 12.9511 56.8984 8.02138 53.6406 5.64052C50.2129 3.37295 42.0801 1.39052 38.2266 1.58779C33.6933 1.78701 23.2363 6.74404 22.8398 7.11318C22.4433 7.45302 15.4433 19.1835 16.2949 21.2811C17.1738 23.3788 18.3926 33.2675 18.7891 34.0604C18.9023 34.287 20.9141 40.7479 22.2461 40.5214C23.5781 40.2948 24.8242 34.4003 24.7676 33.9472C24.5976 32.6444 22.2461 26.8065 22.416 25.9843C22.6152 25.162 28.9043 15.3026 29.3301 14.9608C29.6426 14.705 40.4375 13.3749 40.4941 13.4882C41.2598 12.8358 42.9883 11.1073 44.5742 11.164C46.1328 11.2206 50.6094 11.787 53.1308 13.5448C55.6523 15.3007 56.4453 17.0019 56.6445 17.4843C56.7305 17.4843 60.2441 25.4745 61.2637 25.5038C61.9707 25.4745 62.4805 23.9745 62.3672 22.8124Z" fill="white"/>
<path d="M58.0039 29.3574C57.6348 29.4141 56.6152 29.5 56.502 29.5C56.3027 29.5293 56.3027 29.6426 56.332 29.7266C56.332 29.8125 56.3613 30.1524 56.3887 30.293C56.3887 30.4356 56.5586 30.5195 56.7012 30.5195C56.8438 30.5195 57.834 30.4063 57.9766 30.4063C58.1192 30.377 58.2598 30.2637 58.2598 30.1504C58.2598 30.0371 58.2598 29.7246 58.2598 29.6113C58.2305 29.4707 58.1465 29.3301 58.0039 29.3574Z" fill="white"/>
<path d="M17.2012 76.4512C17.4004 76.4805 17.5977 76.5371 17.7969 76.5938C17.3438 76.4805 16.8613 76.3945 16.5781 76.3105C16.4355 76.2813 16.209 76.2539 15.9824 76.2539C15.5566 76.2539 15.0469 76.3398 14.623 76.5664C14.084 76.8223 10.7402 78.5215 9.32422 79.2578C10.9395 81.582 12.7246 83.7344 14.709 85.7461C14.8223 85.2363 17.0332 82.9121 17.3438 81.5801C17.7949 79.7109 16.7187 77.2441 17.2012 76.4512Z" fill="white"/>
<path d="M73.334 81.8359L70.6699 82.1758C70.6699 82.1758 72.5684 90.9883 73.1074 93.1992L73.4199 94.6152C74.3555 94.1055 75.2617 93.5957 76.1406 93.0293C75.0332 88.9766 73.334 81.8359 73.334 81.8359Z" fill="white"/>
<path d="M88.7207 46.5293C87.3887 47.5488 86.6231 48.9102 86.6524 50.2695C86.6524 52.3105 88.2949 54.2656 92.1211 54.2363C93.0567 54.2363 93.9063 54.123 94.6426 54.0098C94.8692 53.9805 95.0684 53.9238 95.2949 53.8965L95.7481 51.998C95.0117 52.2539 94.0762 52.4512 93.3399 52.4512C91.2988 52.4512 89.9395 51.2617 89.9395 49.6738C89.9395 48.8242 90.2793 48.0879 90.9024 47.5488C91.5821 46.9824 92.5449 46.6133 93.793 46.6133C94.7559 46.6133 95.3516 46.8965 95.7207 47.2656C95.8067 47.3516 95.8633 47.4082 95.9473 47.4922H96.2598L96.8828 45.2539C96.2305 45.0547 95.2969 44.8574 94.3047 44.8574C91.9512 44.8848 90.0508 45.5371 88.7207 46.5293Z" fill="white"/>
<path d="M85.5469 46.8398C85.8301 46.8398 86.0566 46.9531 86.1992 47.0664C86.3418 47.1797 86.3984 47.3223 86.3984 47.4355H86.7109L87.3066 44.998H79.0898L78.9766 45.4805L78.9473 45.5938C78.9473 45.5938 79.8535 45.707 79.5703 46.5859L77.5293 54.0391H81.0137H81.6367L81.7793 53.3867C81.7793 53.3867 81.0137 53.1875 81.2129 52.4805C81.2129 52.4238 81.5254 51.375 81.6953 50.752C81.7812 50.4688 81.8379 50.2695 81.8379 50.2695H83.709C84.0215 50.2695 84.248 50.3262 84.4453 50.3828C84.8144 50.5254 84.9551 50.752 84.9551 50.752L85.4941 48.541H82.3203L82.6602 47.2656L82.8027 46.7832L85.5469 46.8398Z" fill="white"/>
<path d="M75.5723 52.7344C75.3164 52.4785 73.2207 49.1934 73.2207 49.1934L76.9609 46.1895L77.0742 46.0762C77.2441 45.9336 77.3867 45.8496 77.5273 45.7637C77.9238 45.5645 78.1797 45.5938 78.1797 45.5938L78.3223 44.998H73.5059L73.3926 45.4805L73.3633 45.5938C73.7031 45.623 74.1562 45.9062 73.7598 46.2461C73.7031 46.2754 69.9063 49.1934 69.9063 49.1934L69.9355 49.0801L70.7285 46.2187C70.8984 45.6523 71.5215 45.5664 71.5215 45.5664L71.6641 44.9707H67.0742L66.9609 45.4531L66.9316 45.5664C67.1582 45.623 67.7812 45.7363 67.5547 46.5586C66.0254 52.084 66.1953 51.5449 66.082 51.8574C65.7422 53.1602 65.2324 53.3594 64.9199 53.3867C64.8633 53.3867 64.8066 53.3867 64.75 53.3867L64.6934 53.6426L64.6074 54.0391H68.8008H69.4238L69.5938 53.3867C69.5938 53.3867 68.8281 53.2441 68.9707 52.6777C69.0566 52.3945 69.2266 51.7148 69.3965 51.0918C69.5664 50.4961 69.709 49.959 69.709 49.959C70.5312 51.291 70.7285 51.4609 71.75 52.8496C72.6855 54.125 73.6484 54.0684 76.0566 54.0391C76.2559 54.0391 76.4531 54.0391 76.6797 54.0391L76.8496 53.416C76.1953 53.4141 75.7988 52.9902 75.5723 52.7344Z" fill="white"/>
<path d="M98.1836 45.168C98.0703 45.0547 97.9277 44.998 97.7578 44.998C97.5879 44.998 97.4453 45.0547 97.332 45.168C97.2187 45.2812 97.1621 45.4238 97.1621 45.5938C97.1621 45.7637 97.2187 45.9062 97.332 46.0195C97.4453 46.1328 97.5879 46.1895 97.7578 46.1895C97.9277 46.1895 98.0703 46.1328 98.1836 46.0195C98.2969 45.9062 98.3535 45.7637 98.3535 45.5938C98.3535 45.4238 98.2969 45.2832 98.1836 45.168ZM98.127 45.9629C98.0137 46.0762 97.9004 46.1055 97.7578 46.1055C97.6152 46.1055 97.502 46.0488 97.3887 45.9629C97.2754 45.8496 97.2461 45.7363 97.2461 45.5938C97.2461 45.4512 97.3027 45.3379 97.3887 45.2246C97.502 45.1113 97.6152 45.082 97.7578 45.082C97.9004 45.082 98.0137 45.1387 98.127 45.2246C98.2402 45.3379 98.2695 45.4512 98.2695 45.5938C98.2695 45.7363 98.2129 45.8496 98.127 45.9629Z" fill="white"/>
<path d="M98.043 45.4531C98.043 45.3672 98.0137 45.3105 97.9297 45.2832C97.873 45.2539 97.8164 45.2539 97.7598 45.2539H97.5332V45.9062H97.6465V45.6504H97.7324C97.7891 45.6504 97.8457 45.6504 97.875 45.6797C97.9043 45.709 97.9316 45.7656 97.9316 45.8223V45.8789V45.9082H98.0449V45.8789V45.8223V45.7656C98.0449 45.7363 98.0449 45.709 98.0156 45.6523C97.9863 45.623 97.959 45.5957 97.9023 45.5957C97.9316 45.5957 97.9883 45.5664 97.9883 45.5664C98.0137 45.5371 98.043 45.5098 98.043 45.4531ZM97.8437 45.5664C97.8145 45.5664 97.7871 45.5664 97.7305 45.5664H97.6172V45.3398H97.7031C97.7598 45.3398 97.8164 45.3398 97.8457 45.3691C97.875 45.3984 97.9023 45.4258 97.9023 45.4551C97.9297 45.5098 97.9004 45.5371 97.8437 45.5664Z" fill="white"/>
<path d="M91.4395 63.8144C85.1211 61.8867 72.1426 62.3417 72.1426 62.3417L82.7402 87.3339C82.7402 87.3339 83.7324 86.8515 83.8457 87.1074C89.5977 81.7226 94.0742 75.0077 96.7383 67.414C96.5684 67.2714 97.7598 65.7402 91.4395 63.8144Z" fill="white"/>
<path d="M69.8769 93.3103C69.3945 90.8162 67.5254 82.5701 67.5254 82.5701C67.5254 82.5701 70.0195 81.9178 70.6133 80.4724C71.209 79.0271 69.877 76.8455 69.8203 75.9666C69.5371 73.3592 68.5176 62.7342 66.8457 60.5525C65.8828 59.2771 61.4043 56.7556 61.0371 56.7556C59.4219 56.8123 56.2207 63.8396 53.5273 64.4627C51.7422 64.8885 50.4668 63.1306 50.75 63.2732C50.75 63.2732 50.75 63.2732 50.7207 63.2732C50.7207 63.2732 50.7207 63.074 50.4375 62.1404C50.125 61.2049 49.502 60.2127 49.3887 59.9861C49.2754 59.7596 48.9355 59.2771 48.9355 59.2205C48.9355 59.1638 48.793 58.8513 48.709 58.2849C48.5391 57.1795 48.623 56.4431 48.623 56.3572C48.623 56.3006 48.6523 56.1013 48.6797 56.0447C48.6797 55.9881 48.6797 55.9314 48.623 55.9314C48.5664 55.9314 48.4238 55.8748 48.2832 56.0447C47.9707 56.3572 47.9707 56.4138 47.9434 56.4705C47.9434 56.5271 47.9727 56.6131 47.9434 56.7263C47.9141 57.0662 47.8574 57.3494 47.6875 57.6053C47.5449 57.8611 47.4316 57.9451 47.2051 57.9178C46.9785 57.8904 46.8086 57.7185 46.7793 57.2654C46.75 56.8123 46.666 56.6424 46.5801 56.5291C46.4941 56.4158 46.2676 56.3592 46.2109 56.3592C46.1543 56.3592 46.0684 56.4158 45.5879 56.5291C45.1055 56.6424 44.3418 56.699 44.2285 56.699C44.1152 56.699 43.6895 56.7556 43.6895 56.7556C43.7754 57.0955 41.9336 56.5857 41.6211 56.8416C40.998 57.3513 40.6855 60.6385 40.375 62.367L29.9766 63.4158L26.3496 71.8885C26.3496 71.8885 27.4551 88.6638 27.4551 88.9178C27.4551 89.1736 50.4922 83.9314 50.4922 83.9314L59.1914 83.7322C59.1914 83.7322 59.1914 83.7322 59.1914 83.7615C59.248 84.2713 60.2109 92.2615 60.4102 93.5095L61.0625 98.0721C61.1191 98.4685 61.1758 98.865 61.2324 99.2342C62.252 99.0076 63.2441 98.7517 64.2363 98.4412C64.1504 97.9314 64.0664 97.3924 63.9805 96.8826C63.8379 96.2303 63.7539 95.6072 63.668 94.9842L63.3848 93.4256C63.1289 91.9529 61.6855 83.3943 61.6855 83.3943L63.2148 82.4314L64.9707 82.9705C65.0273 83.1971 65.0566 83.4236 65.1133 83.6795C65.4824 85.4646 65.9629 88.0994 66.7285 91.699L67.3242 95.1834C67.3535 95.326 67.5234 96.3455 67.6934 97.3084C68.6289 96.9392 69.5352 96.5721 70.4414 96.1463L69.8769 93.3103Z" fill="white"/>
<path d="M52.6191 29.8107C50.6914 30.0939 47.916 31.6525 48.0293 32.8146C48.1152 33.5236 52.1094 33.6368 53.9238 33.7501C55.7383 33.8927 56.0215 32.1349 55.9356 31.1993C55.8496 30.2638 54.6602 29.5275 52.6191 29.8107Z" fill="#F5D4B7"/>
<path d="M65.7402 60.584C64.7774 60.4707 65.2305 62.0293 65.2305 62.1992C65.7129 64.0137 66.1094 65.8262 66.4199 67.4688C66.4199 67.6387 66.4492 67.7813 66.4492 67.8946C66.5918 68.6035 66.875 70.9258 67.4121 76.1406C67.5254 77.8692 67.6387 79.6817 67.7246 81.2129C67.7813 81.2129 70.9824 81.3828 70.9824 81.3828C70.9824 81.3828 70.8692 76.9063 69.8496 71.2676C68.8574 65.627 67.3555 60.7539 65.7402 60.584Z" fill="#F5D4B7"/>
<path d="M57.0684 46.4436C57.211 45.6506 57.0391 45.2541 56.7852 44.801C56.5293 44.3479 56.0488 43.8947 55.3965 43.4982C54.7735 43.0725 53.3848 41.8557 53.2422 41.7424C53.0996 41.6291 52.4492 41.0061 52.3067 40.8928C52.1367 40.7795 51.8535 40.5236 51.1738 40.1838C49.5586 39.3615 48.2559 39.9846 48.1992 40.0139C48.1426 40.0432 47.916 40.2404 47.6895 40.467C47.4629 40.6936 47.6328 41.09 47.7188 41.26C47.7188 41.26 56.3047 47.551 56.332 47.7209C56.3613 47.6623 56.9551 47.0959 57.0684 46.4436Z" fill="#F5D4B7"/>
<path d="M53.5273 38.6797C53.2441 38.7656 53.0742 38.8496 52.9883 38.9355C52.959 38.9648 52.959 38.9648 52.959 38.9922C52.959 39.0215 52.959 39.0215 52.959 39.0488V39.0781C52.959 39.1074 52.959 39.1074 52.959 39.1074C52.959 39.1367 52.9883 39.1367 52.9883 39.1641C52.9883 39.1641 52.9883 39.1934 53.0176 39.1934C53.0176 39.2227 53.0469 39.2227 53.0742 39.25L53.1035 39.2793C53.1328 39.3086 53.1602 39.3359 53.1895 39.3359C53.1895 39.3359 53.1895 39.3359 53.2188 39.3652C53.2481 39.3945 53.2754 39.4219 53.3047 39.4512C53.3047 39.4512 53.3047 39.4512 53.334 39.4512C53.3633 39.4805 53.4199 39.5078 53.4473 39.5371C53.4766 39.5664 53.5332 39.5938 53.5606 39.623C53.5898 39.6523 53.6738 39.6523 53.7305 39.6523C53.7871 39.6523 53.873 39.6523 53.9863 39.623C54.2988 39.5664 54.666 39.4238 55.0059 39.2539C54.9766 39.2539 54.3828 38.2617 54.4102 38.2344C54.1504 38.4258 53.8945 38.5664 53.5273 38.6797Z" fill="#F5D4B7"/>
<path d="M41.9941 44.5743C42.0234 44.5743 42.0508 44.6036 42.0508 44.6036C41.9375 44.4903 41.9082 44.4611 41.8809 44.2638C41.8242 44.0939 41.7109 43.8673 41.6543 43.7247C41.5977 43.6114 41.3711 43.1857 41.2852 42.9025C41.1992 42.6193 41.1426 42.4493 41.1426 42.1935C41.0859 41.9943 41.0293 41.5704 41.0566 41.2013C41.0859 40.8614 41.1699 40.4923 41.3691 39.4161C41.5117 38.7071 41.2832 37.8868 41.2832 37.1485C41.2832 36.5528 41.2266 35.1368 41.2266 33.6915C41.1133 33.7208 28.334 30.9708 28.418 30.9708C28.5313 29.922 28.4473 28.4767 28.3887 27.4005C28.7285 24.1427 29.2109 20.4025 30.373 17.879C31.252 15.9513 31.1387 16.5763 31.5918 15.6681C31.6211 15.6114 31.6484 15.5548 31.6484 15.4982C31.6484 15.4415 31.6191 15.1857 31.6191 15.129C31.5898 15.129 28.4746 14.2501 24.5918 23.1759C22.9766 26.9161 25.1309 36.2384 25.1309 36.2384L28.502 37.3712L30.7129 36.1818L35.9258 35.1056L38.0508 36.1544L37.3984 38.1388C37.3984 38.1388 37.3984 38.2247 37.3984 38.3653C37.3691 39.0743 36.9727 39.8107 36.6328 40.2071C36.1797 40.7462 35.4141 41.1134 34.9609 41.34C34.5078 41.5392 33.7988 41.7091 33.7422 41.7091C33.7129 41.7091 33.459 41.7384 33.4297 41.7657C33.4004 41.7657 33.3164 41.795 33.2031 41.8224C33.0898 41.8517 32.9766 41.8517 32.9199 41.879C32.8906 41.879 32.8633 41.9083 32.8633 41.9083C32.834 41.9376 32.8066 41.965 32.8066 41.9943C32.8066 41.9943 32.8066 41.9943 32.8066 42.0236C32.8066 42.0528 32.8066 42.0802 32.8066 42.1095C32.8359 42.2228 32.9492 42.3653 32.9492 42.3927C33.0059 42.4786 33.2617 42.7325 33.7148 42.6485C34.3105 42.506 34.707 42.3927 35.1035 42.2794C35.5 42.1368 36.0391 41.9103 36.123 41.8536C36.209 41.797 36.4355 41.6271 36.4629 41.5978C36.5195 41.5685 36.5488 41.5118 36.6055 41.4845C36.6348 41.4552 36.6348 41.4552 36.6621 41.4278C36.7188 42.2775 35.7266 44.7716 35.7266 44.7716C35.7266 44.7716 33.375 45.5939 33.5449 45.5079C33.3457 45.5939 33.0625 45.7071 32.7793 45.4786C32.7793 45.4786 32.4961 45.1661 32.1563 44.7423C31.957 44.4864 31.7305 44.2032 31.5332 43.92C31.3906 43.7208 31.2773 43.5509 31.2207 43.4103C31.0781 43.1544 31.0215 43.0138 30.9941 42.9005V42.8712C30.9375 42.7013 30.8809 42.4454 30.8809 42.4454C30.4551 42.3888 30.002 42.3028 29.6055 42.1329C29.6348 42.1622 26.7148 42.8126 26.7148 42.8126L29.7461 55.1954C29.7461 55.1954 35.4141 64.1212 38.9844 62.3927C39.5234 62.1368 40.4297 60.3243 40.0605 59.7013C39.6641 59.0782 33.6563 49.1036 33.6563 49.1036C33.6563 49.1036 41.9082 44.545 41.9941 44.5743Z" fill="#F5D4B7"/>
<path d="M53.498 78.2365C54.6035 78.9728 55 79.1427 56.2187 79.6525C56.6152 79.8224 57.6348 79.6232 58.0605 78.9728C58.0605 78.9728 58.0312 78.9728 58.0312 79.0021C58.0019 79.0314 51.9961 74.299 51.2031 74.0158C50.9199 73.9298 49.3887 74.4689 49.5879 74.7521C49.7578 75.008 50.4941 75.7716 50.5234 75.8009C51.5723 76.6212 52.9043 77.7267 53.498 78.2365Z" fill="#F5D4B7"/>
<path d="M40.7188 69.5098L30.6602 63.7578C30.6602 63.7578 30.9434 66.6191 30.9434 66.6484C31.6797 67.3008 32.8418 68.0938 33.0117 68.207C33.0684 68.2637 33.5508 68.5469 33.6348 68.6602C33.748 68.8027 34.9941 69.6797 35.1074 69.7363C35.1934 69.793 36.5527 70.5293 37.3457 70.9824C37.375 70.9531 36.7793 71.4648 36.7793 71.4355C36.4961 71.4648 36.2969 71.5781 35.957 71.6914C34.541 72.4844 35.3906 74.1289 35.5039 75.291C35.7871 76.2539 36.127 77.9258 37.375 78.0957C38.3379 78.209 40.5195 77.6133 41.6816 77.3867C41.8516 77.1035 43.5234 76.9902 43.4961 77.0176C43.7793 76.9316 44.1758 76.791 44.3184 76.8184C44.4043 76.8184 44.0625 77.1875 43.8652 77.5547C43.666 77.9238 42.4766 81.4648 41.3438 83.3633C40.9746 84.1289 41.1445 83.8164 40.918 84.3828L43.1855 84.8926L46.8418 75.5703L40.7188 69.5098Z" fill="#F5D4B7"/>
<path d="M29.2988 76.7637C29.6953 77.5 30.8281 79.002 30.8574 79.0879C30.9141 79.1739 31.1406 79.4278 31.4531 79.7403C31.7363 80.0528 31.9922 80.336 32.0488 80.42C32.1055 80.5059 32.6445 81.043 32.7852 81.1856C32.9277 81.2989 33.0977 81.5821 33.2109 81.668C33.6074 82.0371 35.082 83.2832 35.2227 83.3965C35.3652 83.5098 36.0723 83.9629 36.1855 83.9922C37.4316 84.1622 38.0566 83.4532 38.1973 83.2559C38.3398 83.0567 38.3398 82.9727 38.2832 82.6602C38.2832 82.6895 33.4375 79.0332 30.207 72.0352C30.0937 71.752 28.9609 70.42 27.9395 71.2422C27.0898 71.9219 27.7129 73.5372 27.7129 73.5372C27.9961 74.2129 28.959 76.1407 29.2988 76.7637Z" fill="#F5D4B7"/>
<path d="M19.7793 77.4434C20.0918 76.2246 17.4277 76.5078 17.2285 76.4512C16.3789 77.8105 15.5 82.4297 15.0469 84.584C14.9609 84.8398 14.8477 85.207 14.7344 85.7168C15.3574 86.3398 15.9805 86.9629 16.6328 87.5586C17.0859 85.7461 19.6934 77.7832 19.7793 77.4434Z" fill="#F5D4B7"/>
<path d="M91.8086 63.2754C90.3066 62.9356 86.7656 62.2266 81.9766 61.8027C77.1875 61.377 73.2774 60.9805 72.7383 60.9238C72.2559 60.8672 72.0586 60.4141 71.6328 60.1875C70.0176 59.3652 66.957 58.6289 65.0312 57.9492C64.5488 57.7793 64.2383 57.3535 63.5859 56.5606C63.1895 56.0781 62.9062 55.8516 62.5664 55.541C62.3672 55.3418 61.9141 54.9746 61.8008 54.8887C61.6875 54.8027 61.6016 54.5195 61.7148 54.0098C61.8281 53.4707 62.1406 51.4316 62.1113 49.0508C62.1113 48.3984 62.3945 48.002 62.6777 47.8613C62.8477 47.7754 63.8965 47.3223 63.8105 46.2754C63.7246 45.2266 63.4141 43.7813 64.2637 41.7129C65.0859 39.7285 66.1055 36.1582 66.2188 33.8359C66.3613 31.3418 65.7363 29.7559 64.7461 28.877C64.3496 28.5371 63.9238 28.0273 64.293 26.9492C64.6895 25.7871 65.3984 22.5859 64.6895 20.4883C64.5195 20.0059 64.3496 20.0059 64.2363 19.9492C64.1231 19.8926 63.6133 19.4961 63.4141 18.6465C63.1582 17.5137 62.3379 13.4902 59.1914 9.38086C57.5488 7.19922 55.7637 5.92383 55.0547 5.38477C54.5723 5.07227 53.7227 4.47852 52.7031 3.93946C51.2578 3.17383 50.0957 2.58008 47.7734 1.8418C47.5469 1.78516 47.0645 1.61524 46.4141 1.44532C46.4141 1.44532 44.4297 0.906254 42.3047 0.679692C41.9356 0.650395 41.4258 0.593754 40.8594 0.56641C38.6484 0.423832 37.8555 0.56641 36.7227 0.679692C36.6094 0.679692 36.4668 0.708988 36.3535 0.736332C36.127 0.765629 35.9004 0.792973 35.6445 0.849613C32.2441 1.44532 28.7871 3.03125 27.1152 3.82422C26.1523 4.27735 25.3301 4.73047 24.5645 5.1836C24.5352 5.1836 24.5078 5.21289 24.5078 5.21289C24.3086 5.32618 23.998 5.4961 23.6855 5.66602C23.2031 5.92188 22.75 6.17579 22.3262 6.40235C20.9668 7.05469 19.7754 7.39454 18.8984 7.70508C18.7285 7.76172 18.6152 7.81836 18.502 7.84766C17.8789 8.10352 17.4824 8.35743 17.3965 8.75391C17.2539 9.51954 18.1328 10.1992 17.8223 11.3887C17.0566 14.3359 13.7129 17.1699 13.1758 17.4805C11.6172 18.416 11.7305 19.0664 11.6738 19.4082C11.6738 19.7207 11.7305 20.0606 11.9297 20.4277C12.4395 21.5332 13.4023 22.4688 13.8574 23.4316C14.3398 24.4238 14.5938 26.1523 14.2539 28.1641C13.9141 30.1191 13.8281 30.5449 13.6309 30.9121C13.4609 31.2813 13.1211 31.9609 13.6016 32.8106C14.084 33.6328 15.1035 34.4824 15.7266 34.9922C16.0664 35.2481 16.2363 35.502 15.9824 35.9551C15.5566 36.7207 15.6699 38.5625 16.0684 39.582C16.6641 41.1406 17.3438 42.6133 17.9961 43.5781C18.6484 44.541 19.8105 46.1563 20.4609 46.752C21.1406 47.3477 21.2266 48.3672 21.2266 48.9902C21.1973 49.6133 21.1133 51.3984 22.9551 52.5313C23.8613 53.0977 23.9473 52.957 24.2871 53.2109C24.627 53.4668 24.7695 53.6074 24.9961 54.3438C25.2227 55.0527 26.2715 57.6016 27.7168 59.3867C28.1426 59.8965 28.3691 60.2656 28.4258 60.3496C28.4824 60.4356 28.5684 60.5195 28.3691 60.9453C28.1992 61.3711 27.4629 63.8066 26.8672 66.3301C26.7539 66.7832 26.6113 67.4063 26.0176 67.6895C25.4512 67.9727 24.1465 68.6816 23.666 68.9356C23.1836 69.1914 22.957 69.332 22.4199 70.0117C22.1641 70.3242 21.9941 70.4941 21.8535 70.6641C21.7676 70.7773 21.7402 70.834 21.2578 71.0899C20.8613 71.2891 14.9395 73.3848 8.64844 77.2109C8.50586 77.2969 8.33594 77.3809 8.19531 77.4668C8.56445 78.0332 8.93164 78.6289 9.32812 79.166C10.7441 78.457 14.0879 76.7578 14.627 76.4746C15.0527 76.2754 15.5625 76.1914 15.9863 76.1621C16.2422 76.1621 16.4688 76.1914 16.582 76.2188C16.8652 76.2754 17.3477 76.3887 17.8008 76.502C17.8301 76.502 17.8867 76.5313 17.9141 76.5313C17.9434 76.5313 17.9707 76.5313 18 76.5606C18.1992 76.6172 18.3691 76.6465 18.5098 76.6738H18.5391C18.5957 76.7031 18.6816 76.7031 18.709 76.7305C19.1055 76.873 19.332 77.6094 19.1055 78.2891C19.0762 78.4316 18.9355 78.8555 18.7656 79.4785C18.6797 79.791 18.5664 80.1582 18.4531 80.584C18.3398 81.0098 18.2266 81.4336 18.084 81.916C17.6309 83.5879 17.0645 85.6289 16.6113 87.4414C17.8574 88.5742 19.1895 89.6524 20.5508 90.6719C20.6934 89.4824 20.8633 88.2637 20.9766 87.3574C21.3164 85.0059 23.1582 76.3633 23.6973 74.3789C24.0938 72.9336 24.293 72.2812 24.7734 72.0547C24.916 71.998 25.0859 71.8848 25.1992 71.8281C25.3125 71.7715 25.5117 71.7422 25.4551 72.1113C25.3691 72.5645 25.002 74.4063 24.4062 80.3574C24.0098 84.4941 24.0098 88.1504 24.1504 90.3594C24.207 91.2949 24.2363 92.627 25.6523 92.0586C27.3242 91.3789 33.0488 89.3379 36.1074 88.4024C41.0371 86.8731 50.2461 84.8613 59.1445 83.5566L61.6387 83.2168C61.6387 83.2168 63.084 91.7734 63.3379 93.2481C63.082 91.7754 61.6387 83.2168 61.6387 83.2168C61.9785 83.1602 62.3477 83.1309 62.6875 83.0742C63.4805 82.9609 64.2168 82.875 64.9258 82.791L67.5332 82.4512C68.752 82.3086 69.8008 82.168 70.6777 82.0547C70.6777 82.0547 72.3496 89.8184 72.9727 92.5957C73.0293 92.7656 73.0586 92.9356 73.0859 93.0781C72.5762 90.8672 70.6484 82.0547 70.6484 82.0547L73.3125 81.7149C74.1055 81.6016 75.0977 81.4883 75.4102 81.4883C76.0332 81.459 76.3164 81.1191 75.8359 80.9785C75.4961 80.8652 74.7031 80.8086 74.3066 80.7793C74.1641 80.7793 73.8809 80.7793 73.7109 80.7793C73.0879 80.7793 72.918 80.6367 72.7754 79.7305C72.3789 77.0664 70.9043 70.4922 69.8574 67.0078C68.8379 63.6641 68.582 62.7012 68.3281 61.9649C68.1016 61.3418 68.5273 61.2852 68.7246 61.3125C69.4609 61.3418 70.5098 61.7383 70.8223 62.3887C71.4746 63.8047 75.9785 75.6211 77.793 80.041C78.9258 82.8184 80.2578 86.1621 81.5332 89.1367C82.3262 88.4844 83.1191 87.7774 83.8848 87.0684C81.5332 81.9121 76.3477 70.2656 73.5996 64.3711C73.5137 64.1719 73.373 63.8047 73.2871 63.6055C73.2578 63.5488 73.2578 63.4922 73.2578 63.4356C73.2578 63.0664 73.7676 63.0098 73.9941 63.0391C74.957 63.125 83.7695 63.7188 86.1777 63.9453C87.7637 64.0879 89.3516 64.3418 90.4004 64.5117C90.6562 64.5684 90.8535 64.5977 91.0527 64.625C91.2793 64.6816 91.4492 64.7109 91.5625 64.7383C92.3555 64.9375 93.7441 65.5039 95.0195 66.1836C95.5586 66.4668 96.1524 66.8633 96.8047 67.3731C97.0039 66.8066 97.2012 66.2676 97.3711 65.7012C96.918 65.3887 96.3789 65.0488 95.8691 64.7949C94.3867 64.0684 93.1406 63.5879 91.8086 63.2754ZM20.0898 34.0606C19.8633 34.1738 19.6367 34.2031 19.4668 33.8613C19.0703 33.0684 18.7578 31.6504 18.6445 30.7441C18.5312 29.8379 18.332 27.0879 18.3887 25.5879C18.4453 24.0859 18.1621 23.2637 17.623 22.5273C17.084 21.8184 16.7441 21.3086 16.6035 21.082C16.4336 20.7695 16.5469 20.5723 16.8594 20.3457C17.002 20.2324 17.3418 20.2891 17.5684 20.2598C18.0508 20.1738 19.666 19.5801 20.8555 18.6445C22.0449 17.709 23.9434 15.8965 25.248 15.1875C26.5234 14.4785 27.0898 14.168 28.6191 13.9981C28.875 13.9688 29.2988 14.1113 28.8457 14.4512C28.3926 14.791 26.9473 15.3008 25.2461 17.8516C24.1973 19.4102 24.0273 20.3164 23.7168 20.9961C23.377 21.7051 23.0645 21.9023 22.5547 22.4688C22.2988 22.752 21.7891 23.3184 21.5918 24.1406C21.4219 24.9629 20.6563 27.8535 21.1094 32.2441C21.166 32.7539 21.3652 33.4336 20.8828 33.6895C20.5723 33.834 20.3164 33.9766 20.0898 34.0606ZM22.1582 39.9844C21.9023 39.8145 20.8555 38.3984 20.3438 36.8106C20.2871 36.6406 20.2305 36.2148 20.5137 36.1016C20.7402 36.0156 21.0234 35.8184 21.1934 35.7617C21.3633 35.6758 21.7324 35.5918 21.7891 36.1582C21.8457 36.7246 21.9023 37.4043 22.5254 39.0762C22.6387 39.3887 22.668 39.4727 22.6953 39.5859C22.8105 39.9258 22.3848 40.1543 22.1582 39.9844ZM24.2852 34.6563C24.2285 34.6563 23.4922 34.7422 23.123 34.8262C22.8965 34.8828 22.6406 34.9688 22.6133 34.7402C22.584 34.4844 22.5 34.1445 22.4707 34.0313C22.4414 33.9453 22.5 33.832 22.6133 33.8047C22.8965 33.7481 24.002 33.5488 24.1152 33.5488C24.2285 33.5488 24.3418 33.5781 24.3711 33.8047C24.4004 34.0313 24.457 34.2578 24.4844 34.3438C24.4824 34.457 24.5117 34.6289 24.2852 34.6563ZM24.6816 31.0859C24.625 30.7461 24.5117 30.1797 24.5391 29.8106C24.5391 29.668 24.5957 29.3008 24.7656 29.1309C24.9922 28.8477 25.332 28.6211 25.5312 28.4512C25.9004 28.1387 25.8438 27.3457 25.8711 26.8926C25.957 25.5606 25.8418 21.3379 28.5625 17.3145C28.6758 17.1719 28.7891 17.0313 28.875 16.8887C28.9043 16.8594 28.9316 16.8027 28.9609 16.7754C29.0469 16.6895 29.1309 16.6055 29.1875 16.5195C29.2168 16.4902 29.2441 16.4336 29.3008 16.4063C29.3867 16.3203 29.5 16.207 29.584 16.1504C29.6133 16.1504 29.6133 16.1211 29.6133 16.1211C29.7266 16.0352 29.8398 15.9512 29.9531 15.8652C29.9824 15.8359 30.0391 15.8086 30.0664 15.7793C30.1523 15.7227 30.209 15.6934 30.293 15.6367C30.3496 15.6074 30.3789 15.5801 30.4355 15.5801C30.5215 15.5234 30.6055 15.4941 30.6914 15.4668C30.7207 15.4668 30.748 15.4375 30.7773 15.4102C30.8906 15.3535 31.0039 15.3242 31.1172 15.2969C31.1738 15.2676 31.2031 15.2676 31.2598 15.2402C31.3457 15.2109 31.4023 15.1836 31.4863 15.1836C31.5156 15.1836 31.543 15.1543 31.5723 15.1543C32.1387 15.0117 32.7051 14.9277 33.2715 14.8145C34.8867 14.5313 36.7852 14.7852 37.7773 15.0977C38.543 15.3535 38.9395 15.5234 39.1934 15.2969C39.4492 15.041 40.1289 14.2773 40.4121 14.0215C40.4414 13.9922 40.4688 13.9356 40.4981 13.9082C40.4981 13.8789 40.498 13.8789 40.5273 13.8516C40.5273 13.8223 40.5566 13.7949 40.5566 13.7656C40.5566 13.7363 40.5566 13.7363 40.5566 13.709C40.5566 13.6797 40.5566 13.6523 40.5566 13.6231C40.5566 13.5938 40.5566 13.5938 40.5566 13.5664C40.5566 13.5371 40.5273 13.4805 40.5 13.4531C40.4434 13.3398 40.3301 13.2539 40.2168 13.1699C39.9043 12.9707 36.7324 10.6484 32.4531 10.5625C28.2598 10.4492 24.8867 11.9512 23.9805 12.2344C23.8105 12.291 23.6973 12.3203 23.584 12.3203C23.4707 12.3203 23.1016 12.207 23.2441 11.9238C23.3867 11.6406 23.7539 11.2148 24.1504 10.8477C24.5469 10.4805 26.5313 8.60938 28.4863 7.75977C28.8555 7.58985 28.9395 7.53321 29.166 7.44727C29.4492 7.33399 29.6484 6.68164 28.9961 6.6543C28.3164 6.6543 28.0605 6.71094 27.6934 6.76758C27.3242 6.82422 27.1543 6.6543 27.3809 6.3711C27.6074 6.0586 28.0332 5.71875 28.8262 5.29493C30.5254 4.35938 33.6719 3.36719 35.1445 3.05664C37.0723 2.63086 37.3262 2.60352 38.6016 2.51758C39.791 2.46094 40.7559 2.54688 41.209 2.54688C45.0625 2.68946 49.4824 3.96289 52.9121 6.23047C56.1699 8.63868 60.8457 12.6055 61.7813 22.4668C61.8945 23.6563 61.8106 24.3086 61.7813 24.6211C61.752 24.9043 61.4121 25.4707 61.1016 24.8477C60.1387 22.8066 58.6367 20.1445 56.9356 17.6211C56.8223 17.4785 56.7363 17.3945 56.6523 17.3945C56.623 17.3945 56.5957 17.3945 56.5664 17.3945C56.5664 17.3945 56.5664 17.3945 56.5371 17.4238C56.5078 17.4238 56.5078 17.4531 56.4805 17.4805C56.4805 17.5098 56.4512 17.5098 56.4512 17.5371C56.4512 17.5664 56.4512 17.5938 56.4219 17.5938C56.4219 17.6231 56.4219 17.6231 56.4219 17.6504C56.4219 17.707 56.4219 17.7637 56.4512 17.8203C56.4805 17.9902 57.0469 20.6816 57.0469 21.0508C57.0762 21.4199 56.877 22.3262 58.2656 24.0254C58.832 24.7051 59.3418 25.3008 59.5977 26.3203C59.8535 27.3398 59.9375 27.7656 59.9375 27.8789C59.9375 27.9922 60.0508 28.2754 59.5684 28.3047C59.0859 28.3047 57.2168 28.1621 56.4238 28.1914C55.6309 28.2207 50.1328 28.7578 48.0938 29.1836C46.0547 29.6094 44.9492 30.1465 43.9004 31.2246C43.6445 31.4805 43.3047 31.7344 43.2207 31.7637C43.1348 31.793 42.8809 31.793 42.3711 31.7344C41.8613 31.7051 40.9551 31.8203 40.4727 32.0469C39.9902 32.2734 39.6504 32.4434 39.084 32.2168C38.2617 31.877 36.873 30.375 33.2188 30.5449C31.0371 30.6582 29.9043 30.7148 28.373 30.9414C28.2871 30.9707 28.2031 30.9707 28.0898 30.9707C28.0332 30.9707 27.9766 31 27.9199 31C27.8906 31 27.8633 31 27.8066 31.0293C27.1836 31.1426 26.4746 31.2559 25.625 31.4258C25.5117 31.4551 25.3984 31.4824 25.2559 31.4824C24.9648 31.5684 24.7383 31.4258 24.6816 31.0859ZM58.2305 30.1231C58.2305 30.2363 58.0879 30.3496 57.9473 30.3789C57.8066 30.4082 56.8145 30.4922 56.6719 30.4922C56.5293 30.4922 56.3594 30.4063 56.3594 30.2656C56.3594 30.125 56.3027 29.7832 56.3027 29.6992C56.2734 29.6133 56.2734 29.5 56.4727 29.4727C56.5859 29.4434 57.6055 29.3594 58.002 29.3301C58.1445 29.3008 58.2285 29.4434 58.2285 29.5566C58.2305 29.6973 58.2305 30.0098 58.2305 30.1231ZM53.6406 31.2285C53.3281 31.002 52.791 30.6895 52.4785 30.5488C52.252 30.4629 52.3359 30.1797 52.6484 30.1524C53.7539 29.9824 54.4629 29.9824 55 30.3223C55.3965 30.5781 55.6797 31.0586 55.5391 31.4844C55.3965 31.9668 55.1992 31.8809 54.9727 31.8535C54.7461 31.8789 53.9512 31.4551 53.6406 31.2285ZM54.291 33.3809C54.0918 33.5234 53.4688 33.4102 53.2422 33.2949C52.7598 33.0957 52.4199 32.9824 51.7695 32.5586C51.3438 32.2754 50.5801 32.1621 49.9277 32.3594C49.502 32.502 49.1621 32.5859 48.7656 32.7559C48.3965 32.8984 48.3125 32.5566 48.3965 32.416C48.4824 32.2734 49.1055 31.5664 49.8984 31.2539C50.0684 31.1973 50.4082 31.1406 50.5781 31.1406C51.0879 31.1113 51.7402 31.3672 52.2207 31.7363C52.7031 32.1055 53.4961 32.6719 53.9766 32.8984C54.2344 32.9844 54.7461 33.0703 54.291 33.3809ZM38.3945 50.5527C36.4668 51.2324 35.9297 50.5527 35.7598 50.3535C35.5898 50.1543 35.7891 49.957 36.0156 49.8711C36.4688 49.6445 37.0918 49.1914 37.4043 48.8789C37.7168 48.5664 38.3105 47.5195 38.7637 47.1504C38.9629 46.9805 40.0957 46.584 40.9453 47.0078C41.9375 47.4902 43.4961 47.5469 44.459 47.4043C45.4219 47.2617 45.791 46.582 45.9883 46.1582C46.1855 45.7344 46.6973 45.5918 46.9805 45.4785C47.7168 45.166 48.6797 44.1758 48.7949 44.0625C48.9102 43.9492 49.1914 43.8066 49.6738 44.0918C50.5527 44.6016 51.0059 45.2813 51.7988 46.2168C52.6211 47.1524 53.584 47.293 53.8672 47.293C54.1504 47.3223 54.3203 47.6328 54.3496 47.7188C54.3789 47.8047 54.123 48.1152 53.9531 48.2578C53.7832 48.4004 53.6699 48.627 52.1113 48.6543C44.2324 48.8535 40.7188 49.7305 38.3945 50.5527ZM49.0215 51.4883C48.5684 51.7148 47.1797 52.2539 46.5 52.3945C45.8203 52.5352 43.6094 52.9609 43.2422 52.9902C42.7891 53.0195 42.1367 52.877 41.5703 52.5078C41.457 52.4219 41.3145 52.1387 41.7129 52.082C42.4785 51.9688 43.6973 51.4023 48.1445 51.1758C48.627 51.1465 48.8535 51.1465 48.9668 51.1465C49.0781 51.1191 49.4746 51.2324 49.0215 51.4883ZM38.707 61.3496C37.1484 61.6055 33.0117 60.3867 30.3203 53.7559C29.6406 52.0566 30.377 50.3555 31.0566 50.0156C31.4531 49.8164 31.6797 49.7324 31.793 49.7031C31.9355 49.6738 32.6426 49.5606 32.7285 50.3555C32.7852 51.0078 34.0312 56.25 35.7031 57.9785C36.1289 58.4043 36.4395 58.375 36.5527 57.9492C36.6387 57.5527 36.8359 57.0137 36.8652 56.7871C36.8945 56.6445 37.3184 56.1914 37.5449 56.7578C38.0273 57.9766 38.6211 59.5352 39.0176 60.1856C39.416 60.8106 39.3027 61.2637 38.707 61.3496ZM39.0195 44.0078C39.1621 44.207 39.2461 44.5742 39.2461 44.7441C39.2168 44.9434 38.5938 45.2832 37.9141 44.5176C37.2344 43.7813 37.375 42.7324 37.6582 42.2793C38.1113 41.5703 38.9609 41.9395 38.877 42.166C38.5938 43.0723 38.877 43.8086 39.0195 44.0078ZM34.0605 34.2871C33.5508 34.2578 33.0117 34.2012 32.1055 34.543C31.0859 34.9121 30.4336 35.4219 29.9512 35.7051C29.4688 36.0176 28.959 36.1309 28.7891 36.1582C28.6191 36.1875 27.9961 36.1016 28.4199 35.6484C28.5332 35.5352 28.8164 35.4219 29.2129 35.1387C29.5254 34.9121 29.7227 34.7695 30.0625 34.4863C30.6582 33.9766 31.9043 33.2402 32.4434 33.1543C32.8398 33.0977 33.5195 33.1836 33.9453 33.5234C34.4004 33.8633 34.5703 34.3164 34.0605 34.2871ZM25.4746 35.1953C25.5312 34.8555 25.8711 34.0059 26.6367 33.75C26.75 33.7207 27.1191 33.6074 27.4297 33.5234C27.7988 33.4375 28.1953 33.3535 28.3926 33.3242C28.9316 33.2383 29.0449 33.6367 28.7051 33.9199C28.4785 34.0898 28.1094 34.3457 27.7988 34.5996C27.3164 34.9961 26.8633 35.4219 26.4961 35.7324C26.0977 36.0449 25.3887 35.8457 25.4746 35.1953ZM28.0527 44.5449C28.0254 44.5449 28.0254 44.5449 28.0527 44.5449C27.9102 44.3457 27.7695 44.1484 27.6563 43.9492C27.627 43.8926 27.5996 43.8633 27.5703 43.8066C27.457 43.5801 27.3438 43.3809 27.2578 43.127C27.0879 42.6738 27.3711 42.6172 27.5703 42.7012C27.7695 42.8145 28.3066 43.127 28.9023 43.2402C29.2715 43.3262 29.4688 43.1543 29.5547 42.8711C29.5547 42.8418 29.584 42.7852 29.6113 42.7285C29.6113 42.6992 29.6406 42.6719 29.6406 42.6426C29.6406 42.6133 29.6406 42.6133 29.6699 42.5859C29.6699 42.5566 29.6992 42.5293 29.6992 42.5C29.6992 42.4707 29.6992 42.4707 29.6992 42.4434C29.6992 42.4141 29.6992 42.3867 29.6992 42.3574C29.6992 42.3281 29.6992 42.3281 29.6992 42.3008C29.6992 42.2715 29.6992 42.2441 29.6992 42.2149V42.1856C29.6992 42.1563 29.6699 42.1289 29.6699 42.0996V42.0703C29.6406 42.041 29.6133 42.0137 29.584 41.9844C29.5273 41.9551 29.498 41.8984 29.4141 41.8711C28.9043 41.6719 27.459 41.2188 26.3535 39.1797C26.1836 38.8965 26.3535 38.6406 26.4395 38.5566C26.5527 38.4707 26.9219 38.2168 27.1191 38.1309C27.2891 38.0176 27.5449 38.0176 27.7988 38.2168C28.0547 38.3867 28.5918 38.7832 29.0176 38.7559C29.4141 38.7266 29.4707 38.5566 29.5273 38.4434C29.8105 38.0176 30.5762 36.5156 32.5879 36.4883C33.4102 36.4883 34.2031 36.5449 34.4863 36.5449C34.7695 36.5156 35.7324 36.4316 36.3281 36.0352C36.8945 35.6387 37.1504 35.9219 36.8105 36.3477C36.7539 36.4043 36.7246 36.4609 36.668 36.5176C36.6387 36.5469 36.6387 36.5469 36.6113 36.5742C36.5547 36.6309 36.5254 36.6875 36.498 36.7441C36.3848 36.9707 36.3555 37.1406 36.584 37.3965C36.9531 37.793 37.0371 37.8496 37.1797 37.9629C37.2363 37.9922 37.293 38.0195 37.3789 38.0195C37.4082 38.0195 37.4356 38.0195 37.4648 37.9902C37.4941 37.9902 37.4941 37.9902 37.5215 37.9902C37.5781 37.9609 37.6348 37.9336 37.6914 37.877C37.8906 37.6777 38.0312 37.5938 38.2305 37.3379C38.373 37.168 38.4863 37.3379 38.457 37.6211C38.4277 37.8477 38.5137 39.207 37.041 40.8789C36.9844 40.9356 36.8711 41.0215 36.7285 41.1621C36.6992 41.1914 36.6719 41.2188 36.6152 41.2481C36.5859 41.2774 36.5859 41.2773 36.5586 41.3047C36.502 41.334 36.4727 41.3906 36.416 41.4473C36.3867 41.4766 36.3301 41.5332 36.3027 41.5606C36.2734 41.5898 36.2168 41.6465 36.1895 41.6738C36.1602 41.7031 36.1328 41.7305 36.1035 41.7598C36.0469 41.8164 35.9902 41.8731 35.9609 41.9297C35.9316 41.959 35.9316 41.9863 35.9043 41.9863C35.8477 42.0723 35.791 42.1289 35.7344 42.2129C35.6777 42.3262 35.6211 42.4121 35.5645 42.5254C35.1387 43.4043 35.1953 43.7148 35.168 44.0273C35.1387 44.3398 34.8848 44.4805 34.6016 44.5938C34.4316 44.6797 33.9785 44.9336 33.4961 45.3027C33.3535 45.416 33.1836 45.5293 33.043 45.6719C33.0137 45.7012 32.9863 45.7285 32.957 45.7578C32.8145 45.9004 32.6738 46.041 32.5312 46.1836C32.4453 46.2695 32.3613 46.3535 32.248 46.4395C32.2188 46.4688 32.1914 46.4961 32.1621 46.4961C32.1055 46.5527 32.0195 46.582 31.9629 46.6387C31.9336 46.668 31.877 46.668 31.8496 46.6953C31.793 46.7246 31.707 46.752 31.6504 46.7813C31.6211 46.7813 31.5645 46.8106 31.5371 46.8106C31.5078 46.8106 31.5078 46.8106 31.4805 46.8398C31.4238 46.8398 31.3945 46.8399 31.3379 46.8691C31.2812 46.8691 31.2246 46.8984 31.168 46.8984C31.1113 46.8984 31.0547 46.8984 30.998 46.8984C30.9414 46.8984 30.8848 46.8984 30.8281 46.8984C30.7715 46.8984 30.7148 46.8691 30.6289 46.8418C30.5723 46.8418 30.5156 46.8125 30.459 46.7852C30.4023 46.7559 30.3457 46.7285 30.2891 46.6992C30.2324 46.6699 30.1758 46.6426 30.1191 46.6133C30.1191 46.6133 30.1191 46.6133 30.0898 46.6133C29.9766 46.5566 29.8906 46.4707 29.7773 46.3867C29.5215 46.1602 29.2383 45.9043 28.9551 45.6211L28.9258 45.5918L28.8965 45.5625C28.7539 45.4199 28.6133 45.25 28.4707 45.0801C28.5059 45.1406 28.1953 44.7441 28.0527 44.5449ZM45.9902 76.0274C45.9043 76.5098 45.5078 78.125 44.0918 81.4121C44.0059 81.6387 43.8926 81.8379 43.8086 82.0645C43.7793 82.1211 43.7519 82.1504 43.7519 82.207C43.7227 82.293 43.666 82.377 43.6387 82.4336C43.6387 82.4336 43.6387 82.4336 43.6387 82.4629C43.582 82.5762 43.5254 82.6895 43.4688 82.8027L43.4395 82.832C43.4102 82.8613 43.4102 82.918 43.3828 82.9453C43.3535 83.002 43.3262 83.0313 43.2969 83.0879C43.2969 83.0879 43.2969 83.1172 43.2676 83.1172C43.2383 83.1465 43.2109 83.2305 43.2109 83.2305C43.2109 83.2305 43.2109 83.2305 43.2109 83.2598C43.1816 83.2891 43.1816 83.3164 43.1543 83.3457C43.1543 83.3457 43.1543 83.375 43.125 83.375C43.0957 83.4043 43.0684 83.4316 43.0684 83.4883C43.0684 83.4883 43.0684 83.4883 43.0684 83.5176C43.0391 83.5469 43.0117 83.6035 42.9824 83.6309C42.9531 83.6602 42.9258 83.6875 42.9258 83.7168C42.9258 83.7168 42.9258 83.7168 42.8965 83.7461C42.8672 83.7754 42.8398 83.8027 42.8106 83.832C42.7813 83.8613 42.7812 83.8613 42.7539 83.8887L42.7246 83.918C42.7246 83.918 42.7246 83.918 42.6953 83.9473C42.666 83.9766 42.6387 84.0039 42.6094 84.0039C42.5801 84.0332 42.5527 84.0332 42.5234 84.0605C42.5234 84.0605 42.5234 84.0605 42.4941 84.0605C42.4941 84.0605 42.4941 84.0605 42.4648 84.0605C42.4355 84.0605 42.4356 84.0899 42.4082 84.0899C42.3789 84.0899 42.3516 84.1191 42.3223 84.1191C42.3223 84.1191 42.3223 84.1191 42.293 84.1191C42.2637 84.1191 42.2363 84.1484 42.207 84.1484C41.9238 84.2051 41.584 84.2617 41.4141 84.291C41.3848 84.291 41.1875 84.3203 41.1875 84.3203C41.1016 84.3203 41.0176 84.3496 40.9316 84.3496C38.7773 84.7188 32.9688 85.709 30.248 86.2481C28.4629 86.6172 28.6328 85.709 28.1797 84.0664C27.9805 83.3867 27.3301 77.3223 27.6699 73.4981C27.7832 72.2227 27.8398 71.8555 28.0664 71.7129C28.293 71.5703 28.6328 71.3438 28.7461 71.3164C28.8594 71.2871 29.1426 71.2031 29.3125 71.459C29.4551 71.7149 32.0605 77.041 33.7891 78.9688C35.3184 80.6973 36.3672 81.916 37.6426 82.7656C37.7285 82.8223 37.8125 82.8516 37.8691 82.8789H37.8984C37.9277 82.8789 37.9551 82.8789 37.9844 82.9082C38.0137 82.9082 38.041 82.9082 38.0703 82.9082C38.0703 82.9082 38.0703 82.9082 38.0996 82.9082C38.1289 82.9082 38.1855 82.8789 38.2129 82.8516C38.2422 82.8223 38.2422 82.7949 38.2695 82.7383V82.709C38.2988 82.5098 38.2129 82.1992 38.0137 82C37.7305 81.6875 36.5684 80.498 35.0098 78.2871C33.0254 75.4531 31.666 71.2891 31.2969 69.957C31.0703 69.0781 30.9277 67.6895 30.957 66.5859C30.957 66.5293 30.957 66.5 30.957 66.4434C30.957 66.4141 30.957 66.3867 30.957 66.3301C30.957 66.2441 30.957 66.1875 30.957 66.1035C30.957 65.9902 30.9863 65.9043 30.9863 65.791C30.9863 65.7617 30.9863 65.7051 31.0156 65.6777C31.0156 65.6211 31.0449 65.5352 31.0449 65.4785C31.0449 65.4492 31.0449 65.4219 31.0742 65.3926C31.1035 65.3066 31.1035 65.2227 31.1309 65.166C31.4434 64.2871 31.6973 64.3731 31.9805 64.6836C32.2637 64.9961 34.7285 67.2344 38.8086 69.0469C39.6875 69.4434 40.1973 69.6133 40.3105 69.7266C40.4238 69.8399 40.6231 70.1231 40.2539 70.209C39.8848 70.2949 38.8086 70.3223 37.6465 70.7754C37.5898 70.8047 37.5332 70.832 37.4766 70.8613C37.0801 71.0313 36.8809 71.2305 36.7969 71.4004C36.7676 71.4297 36.7676 71.4863 36.7676 71.5137C36.7676 71.541 36.7676 71.5703 36.7383 71.5996C36.7383 71.6563 36.7383 71.6856 36.7383 71.7422C36.7383 71.7715 36.7383 71.7988 36.7383 71.8281C36.7383 71.8848 36.7383 71.9414 36.7676 71.9981C36.7676 72.1113 36.7969 72.1973 36.7969 72.3106C36.8535 72.9336 36.9668 73.3594 37.0527 74.209C37.1387 75.0313 37.082 75.7949 37.4785 76.1367C37.875 76.4766 38.4414 76.6758 39.916 76.3926C41.3047 76.1094 41.7871 75.9961 41.9277 75.9961C42.0977 75.9961 42.4941 75.9395 42.2402 76.3926C42.2109 76.4492 42.1836 76.4785 42.1543 76.5625C41.8418 77.1289 41.0488 78.4336 40.7949 79.2832C40.5117 80.2188 40.4551 80.502 40.4258 80.6426C40.3965 80.8125 40.5117 81.125 40.7949 80.7559C41.0781 80.416 41.6445 79.084 43.0898 77.4121C43.2891 77.1856 43.459 76.9863 43.6289 76.8164C43.7715 76.6738 43.8848 76.5606 43.998 76.4199C44.0273 76.3906 44.0547 76.3633 44.084 76.334C44.1699 76.248 44.2832 76.1641 44.3672 76.0781C44.3965 76.0488 44.4238 76.0488 44.4238 76.0215C44.6504 75.8223 44.8203 75.6816 44.9902 75.5684C45.0195 75.5684 45.0195 75.5391 45.0469 75.5391C45.1035 75.4824 45.1602 75.4531 45.2168 75.4258C45.2461 75.4258 45.2461 75.3965 45.2734 75.3965C45.3301 75.3672 45.3867 75.3399 45.4434 75.3106C45.4434 75.3106 45.4727 75.3106 45.4727 75.2813C45.4727 75.2813 45.4727 75.2813 45.502 75.2813C45.5586 75.252 45.6152 75.2246 45.6719 75.1953C45.9902 75.1191 46.1035 75.375 45.9902 76.0274ZM48.3691 83.3086C48.1426 83.3652 47.1504 83.5078 46.9805 83.5078C46.8379 83.5078 46.6973 83.3652 46.7539 83.252C46.8106 83.1387 47.4902 82.2598 47.8867 80.7012C47.9434 80.4453 48.1133 80.2754 48.1992 80.6445C48.2852 80.9004 48.5957 82.2305 48.6523 82.7129C48.6816 82.8281 48.7383 83.2246 48.3691 83.3086ZM48.7656 70.6719C48.1133 70.9277 47.377 70.1895 46.8105 69.793C45.4785 68.8867 44.2598 68.0078 43.2695 66.7891C41.7402 64.918 41.8809 63.6152 42.334 61.207C42.6465 59.5078 42.0781 57.8926 41.9648 57.666C41.8516 57.4395 41.9941 57.2129 42.334 57.3828C42.7031 57.5527 43.043 58.0918 43.4102 58.5449C43.7793 58.9981 43.8633 58.6875 43.8926 58.375C43.9492 57.666 43.8066 57.0996 43.7227 56.7598C43.7227 56.7305 43.7227 56.7305 43.7227 56.7031C43.666 56.5039 43.4961 56.0801 43.0996 55.9941C42.5898 55.8809 42.0801 55.8516 41.7969 55.6543C41.6543 55.5684 41.5137 55.3711 41.6543 55.2285C41.9102 54.9727 42.3066 54.6328 42.6738 54.5195C43.1562 54.3496 43.6367 54.0938 44.2598 54.0938C48.4824 54.1231 49.6152 53.1582 51.2305 52.4785C51.543 52.3359 51.7402 52.2793 51.9961 52.3652C52.2793 52.4512 53.0156 52.7344 53.1855 53.0449C53.3848 53.3848 53.4121 54.7441 53.752 55.7363C54.1211 56.7285 54.7148 55.707 54.8574 55.2832C54.9707 54.8574 55.0273 53.8379 55.0273 53.584C55.0273 53.3281 55.1133 52.252 55.4531 51.8848C56.1328 51.1758 56.2754 50.3262 56.3594 49.9863C56.4453 49.6738 56.502 48.8535 56.3301 47.6621C56.3008 47.5195 56.3008 47.3496 56.2734 47.209C56.0469 45.793 55.7637 45.6504 55.3672 45.3945C54.9707 45.1387 54.5742 45.252 53.582 44.5723C52.7031 43.9766 51.8828 42.9004 51.2305 42.2481C50.5508 41.5957 49.5019 40.9453 48.3965 40.832C48.3398 40.832 48.2539 40.832 48.1973 40.832C48.1406 40.832 48.1113 40.832 48.0547 40.8613C48.0547 40.8613 48.0547 40.8613 48.0254 40.8613C47.9961 40.8613 47.9688 40.8906 47.9395 40.8906H47.9102C47.8809 40.8906 47.8809 40.9199 47.8535 40.9199L47.8242 40.9492L47.7949 40.9785C47.7949 40.9785 47.7949 41.0078 47.7656 41.0078C47.7656 41.0078 47.7656 41.0371 47.7363 41.0371C47.7363 41.0664 47.7363 41.0664 47.7363 41.0938V41.1231C47.7363 41.1524 47.7363 41.1797 47.7363 41.209C47.7656 41.4922 47.9629 41.832 48.0195 41.9453C48.0762 42.1445 48.2754 42.7109 47.9629 43.0508C47.6504 43.3906 45.7812 45.0625 44.0527 45.0059C43.2598 44.9766 42.6074 44.8359 42.0684 44.5801C42.0391 44.5801 42.0117 44.5508 42.0117 44.5508C41.8691 44.4941 41.7559 44.4375 41.6426 44.3516C41.6133 44.3516 41.6133 44.3223 41.5859 44.3223C41.4434 44.2363 41.3301 44.1524 41.2168 44.0957C41.1875 44.0664 41.1602 44.0391 41.1035 44.0098C41.0176 43.9531 40.9336 43.8672 40.8477 43.8106C40.8184 43.7813 40.791 43.7813 40.7617 43.7539C40.6758 43.668 40.5918 43.584 40.5059 43.4981C40.4766 43.4688 40.4766 43.4414 40.4492 43.4414C40.3926 43.3555 40.3359 43.2988 40.2793 43.2148C40.25 43.1856 40.25 43.1582 40.2227 43.1582C40.166 43.0723 40.1094 42.9883 40.0527 42.9024C40.0527 42.9024 40.0527 42.8731 40.0234 42.8731C39.9668 42.7871 39.9375 42.7305 39.9102 42.6738C39.9102 42.6445 39.8809 42.6445 39.8809 42.6172C39.8516 42.5606 39.8242 42.4746 39.7949 42.418C39.5391 41.6523 40.1641 39.8398 40.1641 38.5645C40.1641 37.9981 40.0508 36.9219 39.9648 36.1563C39.8789 35.3906 40.2773 34.3711 40.4746 34.1445C40.5039 34.0879 40.5879 34.0313 40.6445 33.9746C40.6738 33.9746 40.6738 33.9453 40.7012 33.9453C40.7578 33.8887 40.8438 33.8594 40.9277 33.832C40.9277 33.832 40.957 33.832 40.957 33.8027C41.043 33.7734 41.127 33.7168 41.2402 33.6895C41.4102 33.6328 41.5801 33.5762 41.7793 33.5469C42.4023 33.4043 43.1387 33.7168 43.3086 34.2266C43.9609 36.0117 44.668 36.3809 44.9238 36.5215C45.1797 36.6348 45.5469 36.2949 45.6895 36.1523C45.832 36.0391 46.1992 35.5566 46.0586 35.3301C45.8027 35.0176 45.6621 34.8203 45.6055 34.6211C45.4922 34.2813 45.918 34.2813 46.0312 34.3379C47.3633 34.9043 47.9863 35.0176 49.2891 34.9902C50.5645 34.9609 52.5762 34.1113 52.8027 34.1113C53.002 34.1113 53.3984 34.2246 53.5391 34.4512C53.5684 34.4805 53.5957 34.5371 53.625 34.5938C53.7676 34.793 53.9375 35.0469 54.0781 35.1035C54.0781 35.1035 54.0781 35.1035 54.1074 35.1035C54.3066 35.1602 54.7598 35.1035 54.9863 35.1328C55.2988 35.1328 55.8652 35.0195 55.8652 35.6152C55.8359 37.2012 54.5625 38.1934 54.4492 38.3066C54.3926 38.3359 54.3926 38.3926 54.3633 38.4492C54.3633 38.4785 54.334 38.4785 54.334 38.5059C54.334 38.5332 54.334 38.5625 54.334 38.5918C54.334 38.6211 54.334 38.6484 54.334 38.6777C54.3633 38.7637 54.5039 39.1035 54.5606 39.2168C54.5898 39.2461 54.6172 39.2734 54.6465 39.3027L54.6758 39.332C54.7051 39.3613 54.7324 39.3613 54.7617 39.3887C54.791 39.3887 54.791 39.3887 54.8184 39.418C54.8477 39.418 54.875 39.418 54.9043 39.418C54.9336 39.418 54.9336 39.418 54.9609 39.418C55.0176 39.418 55.0469 39.3887 55.1035 39.3613C56.1797 38.709 56.6055 37.9727 57.0586 37.0098C57.5117 36.0742 57.7676 32.957 57.7949 32.4473C57.8223 31.9375 57.9941 31.625 58.2481 31.3984C58.5039 31.1992 59.75 30.3789 59.9199 30.3496C60.0898 30.3203 60.3164 30.293 60.5156 30.7461C60.7148 31.2285 61.168 34.0899 61.252 34.5156C61.3379 34.9981 61.5918 34.9414 61.7051 34.8281C61.9609 34.6289 62.1582 34.4024 62.4141 33.9785C62.6699 33.582 62.4707 33.0156 62.2441 32.7324C62.0176 32.4766 61.6484 32.0527 61.791 31.627C62.1602 30.6641 62.9238 30.7207 63.1231 30.7481C63.3223 30.7773 64.0859 31.1172 64.2285 33.1856C64.4277 36.2461 63.1797 39.4199 62.8691 40.2129C62.2168 41.9981 62.0762 43.2168 61.9629 43.7832C61.877 44.3496 61.4238 44.2656 61.3106 44.1523C61.1973 44.0664 61.0547 43.6133 60.998 43.5566C60.9414 43.5 60.7422 43.5274 60.6289 44.0098C60.5156 44.4922 60.1465 45.1719 59.9199 45.5391C59.7773 45.7656 59.8066 46.1348 59.834 46.3887C59.8906 46.8984 60.1738 48.9102 60.0898 51.1777C59.9473 55.2012 58.5879 57.752 57.5957 59.084C55.2148 62.2012 53.0059 63.5332 52.75 63.7031C52.4102 63.9297 51.8438 63.9023 51.6445 63.8457C51.4453 63.7891 51.2754 63.5898 50.9082 63.3359C50.8789 63.3066 50.8516 63.3066 50.8223 63.2793C50.5391 63.1367 50.4824 63.5625 50.4824 63.6484C50.4824 63.7617 50.6523 64.1875 50.7656 64.584C50.9648 65.3496 50.5391 66.2832 50.0859 66.9922C49.4629 68.0117 48.7539 69.1738 48.8965 70.4199C48.8789 70.5586 48.8789 70.6426 48.7656 70.6719ZM68.8281 71.8613C69.1973 73.9024 69.5938 76.4238 70.0469 79.4844C70.0762 79.6543 70.0762 79.7969 70.1035 79.9102C70.1035 79.9395 70.1035 79.9395 70.1035 79.9668C70.1035 80.0801 70.1328 80.1934 70.1328 80.2793V80.3086C70.1328 80.3379 70.1328 80.3945 70.1328 80.4219C70.1328 80.4492 70.1328 80.4785 70.1035 80.5078V80.5371C70.0742 80.5938 70.0742 80.6504 70.0469 80.707C70.0469 80.707 70.0469 80.707 70.0176 80.7363C69.9883 80.7656 69.9609 80.793 69.9316 80.8223L69.9023 80.8516C69.873 80.8809 69.8164 80.9082 69.7598 80.9082C69.7598 80.9082 69.7305 80.9082 69.7031 80.9375C69.6465 80.9668 69.6172 80.9668 69.5605 80.9668C69.5312 80.9668 69.5039 80.9668 69.4746 80.9961C69.418 80.9961 69.332 81.0254 69.248 81.0527C69.1055 81.082 68.8789 81.1094 68.7383 81.1387C68.4824 81.168 68.1992 81.1953 67.8594 81.2246C64.7422 81.5078 58.6211 82.1309 53.7207 82.7539C53.6348 82.7539 53.5215 82.7832 53.4375 82.7832C53.0684 82.8399 52.8418 82.7832 52.8145 82.4141C52.7852 82.0742 52.2188 78.6738 50.4902 75.7832C50.3203 75.5274 50.1504 75.2441 49.9805 74.9902C49.7812 74.707 50.0664 74.4805 50.3496 74.5938C51.1426 74.877 53.2969 75.8691 56.4141 78.0781C57.207 78.6445 57.4063 78.8145 57.5762 78.957C57.6055 78.9863 57.6328 78.9863 57.6621 79.0137C57.6621 79.0137 57.6914 79.0137 57.6914 79.043C57.7207 79.043 57.7481 79.0723 57.7773 79.0723C57.8066 79.0723 57.8066 79.0723 57.8066 79.0723C57.8359 79.0723 57.8633 79.0723 57.8926 79.0723H57.9219C57.9512 79.0723 57.9785 79.043 58.0078 79.043C58.0938 78.9863 58.1211 78.9004 58.0645 78.7598C57.8652 78.2207 56.8457 77.1445 54.1816 74.6797C53.8125 74.3398 53.7852 74.1699 54.1816 74.1406C54.5781 74.1113 55.627 74.1406 56.1934 74.1406C56.7598 74.1113 58.0352 74.084 57.7793 72.4121C57.5801 71.1367 57.4395 69.8047 57.4102 69.4082C57.3809 69.0117 57.3242 68.2754 56.3906 68.1621C55.4844 68.0488 53.9258 68.2754 52.5371 68.7578C52.168 68.9004 52.0273 68.7012 52.3105 68.4453C52.5938 68.1895 55.0313 66.6035 57.0996 64.2227C59.3672 61.6152 60.3867 59.6895 60.9531 57.9316C61.0664 57.6191 61.1797 57.7324 61.3223 57.7891C61.4355 57.875 62.3145 58.5547 62.5977 60.2539C62.8809 61.9531 63.4766 64.3066 62.4551 70.5117C61.8887 73.9121 61.1797 75.9238 61.0391 76.4063C60.8691 76.8887 61.1523 77.1426 61.4648 76.7188C62.2012 75.7266 63.1641 72.9492 63.9863 69.7774C64.7793 66.6328 65.0918 63.9395 65.2051 62.2109C65.2051 62.041 65.2344 61.8984 65.2344 61.7578V61.7012C65.2344 61.5586 65.2344 61.418 65.2637 61.3047C65.2637 61.2188 65.2637 61.1621 65.293 61.1055C65.293 61.0762 65.293 61.0762 65.3223 61.0762C65.3223 61.0469 65.3516 61.0195 65.3516 61.0195C65.3809 60.9902 65.3809 60.9629 65.4082 60.9336C65.4082 60.9336 65.4082 60.9336 65.4375 60.9043C65.4668 60.9043 65.4668 60.875 65.4941 60.875C65.4941 60.875 65.5234 60.875 65.5234 60.8457H65.5527C65.582 60.8457 65.582 60.8457 65.6094 60.8457C65.6094 60.8457 65.6094 60.8457 65.6387 60.8457H65.668C65.7246 60.8457 65.7812 60.875 65.8379 60.9024C66.0078 60.959 66.7168 61.1856 67.084 62.8867C67.1133 62.9434 67.1133 63.0293 67.1406 63.1133C67.1406 63.1426 67.1406 63.1699 67.1699 63.1992C67.1992 63.2559 67.1992 63.3418 67.2266 63.4258C67.4395 64.7481 68.0059 67.1016 68.8281 71.8613Z" fill="black"/>
<path d="M55.623 74.7793H55.9629V75.6875H56.1895V74.7793H56.5312V74.6094H55.623V74.7793Z" fill="black"/>
<path d="M57.2949 75.375L57.0117 74.6094H56.7012V75.6875H56.8984V74.8086L57.2109 75.6875H57.3809L57.6641 74.8086V75.6875H57.8613V74.6094H57.5508L57.2949 75.375Z" fill="black"/>
</g>
<defs>
<clipPath id="clip0_55_519">
<rect width="100" height="100" fill="white" transform="translate(0 0.5)"/>
</clipPath>
</defs>
</svg>
