<svg width="265" height="101" viewBox="0 0 265 101" fill="none" xmlns="http://www.w3.org/2000/svg">
<g clip-path="url(#clip0_55_450)">
<path d="M50.3563 100.044C22.8429 100.044 0.458618 77.8182 0.458618 50.5014C0.458618 23.1819 22.8429 0.956787 50.3563 0.956787C77.8688 0.956787 100.252 23.1828 100.252 50.5014C100.252 77.8182 77.8688 100.044 50.3563 100.044Z" fill="white"/>
<path d="M50.3563 1.41111C77.6588 1.41111 99.7935 23.3886 99.7935 50.5005C99.7935 77.6125 77.6588 99.5891 50.3563 99.5891C23.052 99.5891 0.917237 77.6116 0.917237 50.5005C0.917237 23.3895 23.052 1.41111 50.3563 1.41111ZM50.3563 0.500732C22.5897 0.500732 0 22.9306 0 50.5005C0 78.0714 22.5897 100.499 50.3563 100.499C78.122 100.499 100.711 78.0686 100.711 50.5005C100.711 22.9306 78.122 0.500732 50.3563 0.500732Z" fill="#004883"/>
<path d="M263.657 30.3666C264.212 29.7238 264.583 28.991 264.583 28.0724C264.59 27.1606 264.261 26.2779 263.657 25.5907C263.007 24.9462 262.178 24.5784 261.249 24.5784C260.326 24.5784 259.587 24.9471 258.843 25.5907C258.199 26.2343 257.917 27.061 257.917 28.0724C257.917 28.991 258.199 29.7238 258.843 30.3666C259.587 31.0102 260.326 31.2851 261.249 31.2851C262.178 31.2851 263.007 31.0102 263.657 30.3666ZM263.845 64.1771V34.5015H258.844L258.939 64.1771H263.845ZM252.271 35.9727L251.44 35.604C249.218 34.3167 246.532 33.6749 243.294 33.6749C239.776 33.6749 236.907 34.5006 234.778 36.1547C233.667 36.9823 232.926 37.808 232.371 38.9123C231.817 39.9219 231.536 40.9324 231.536 42.1259C231.536 44.1479 232.465 45.8011 234.132 47.2705C235.703 48.6497 238.017 49.7522 241.072 50.6698C243.662 51.4964 245.421 52.324 246.532 53.1515C247.459 54.071 248.015 55.0806 248.015 56.3661C248.015 57.7444 247.274 58.8468 245.976 59.7663C244.679 60.5019 242.827 60.9607 240.516 60.9607C238.015 60.9607 235.518 60.3171 232.926 59.1209L232.277 58.6639L230.148 62.5211L230.891 62.8889C233.76 64.2672 236.909 64.909 240.333 64.909C244.035 64.909 247.09 64.1744 249.496 62.5211C250.699 61.7855 251.533 60.7768 252.181 59.7672C252.826 58.5728 253.106 57.2846 253.106 55.9992V55.9045C253.106 53.7005 252.181 51.7705 250.422 50.2101C248.943 48.9255 246.535 47.8212 243.387 46.9036C240.979 46.0733 239.222 45.2476 238.203 44.6049C237.092 43.7764 236.63 42.8597 236.63 41.8492C236.63 40.6538 237.092 39.7371 238.113 38.9105C239.222 38.174 240.7 37.7142 242.646 37.7142C245.331 37.7142 247.552 38.174 249.311 39.2764L249.96 39.7362L252.271 35.9727ZM222.097 38.1767C218.672 35.2371 214.415 33.6758 209.506 33.6758C204.693 33.6758 200.713 35.1442 197.475 37.9928C193.863 41.2101 192.013 45.6181 192.013 51.4063V74.4662H196.824V59.5833C198.307 61.2357 200.16 62.5229 202.38 63.4433C204.602 64.452 207.008 64.9109 209.601 64.9109C214.507 64.9109 218.672 63.4433 222.097 60.3162C225.615 57.2846 227.371 53.6113 227.371 49.2915C227.371 44.8825 225.615 41.2092 222.097 38.1767ZM209.506 37.808C213.118 37.808 216.263 38.9123 218.669 41.1154C221.171 43.3203 222.467 46.0751 222.467 49.3862C222.467 52.507 221.354 55.0797 219.133 57.2846C216.727 59.5815 213.488 60.7768 209.601 60.7768C205.71 60.7768 202.562 59.5824 200.064 57.2846C197.752 54.9896 196.642 52.4168 196.642 49.3862C196.642 46.3519 197.753 43.689 200.064 41.4823C202.473 39.0953 205.621 37.808 209.506 37.808ZM184.329 39.6479C181.092 35.604 176.463 33.6749 170.259 33.6749C165.631 33.6749 161.648 34.9612 158.225 37.716C154.524 40.5646 152.673 44.4246 152.673 49.2014C152.673 51.8651 153.412 54.5298 154.986 57.0097C156.376 59.3976 158.504 61.3285 161.374 62.797C164.242 64.1762 167.297 64.818 170.629 64.818C173.777 64.818 176.738 64.1762 179.61 62.797C182.476 61.3285 184.606 59.3976 185.995 57.0097L186.921 55.4475H181.553C180.441 57.0097 178.865 58.297 176.832 59.3066C174.796 60.3162 172.574 60.7768 170.445 60.7768C167.483 60.7768 164.983 60.0394 162.761 58.5701C160.539 57.0088 159.06 55.0797 158.133 52.507C161.186 51.3125 164.242 50.6689 167.576 50.6689L172.574 51.2188L180.349 51.9553C182.755 51.9553 184.795 51.5875 186.643 51.0376C187.385 50.7609 187.846 50.3931 188.034 49.9333C188.31 49.5664 188.31 48.9255 188.127 48.1872C187.569 44.8825 186.366 42.0358 184.329 39.6479ZM183.036 47.1831L183.127 47.3651L180.442 47.732L174.611 47.1822L166.465 46.5367H165.076C162.484 46.7206 160.078 47.1822 157.763 48.007C158.132 44.6067 159.8 41.9411 162.577 40.0138C164.89 38.5418 167.484 37.716 170.259 37.716C174.608 37.716 177.942 39.0944 180.442 41.851C181.739 43.5061 182.662 45.2503 183.036 47.1831ZM131.103 33.6749C126.382 33.6749 122.31 35.1433 119.07 37.9919C115.46 41.2092 113.701 45.6172 113.701 51.4045L113.609 74.4644H118.608L118.514 59.5815C119.996 61.2348 121.847 62.5211 123.976 63.4415C126.29 64.4511 128.697 64.9081 131.289 64.9081C136.195 64.9081 140.36 63.4415 143.786 60.3153C147.303 57.2837 148.968 53.6085 148.968 49.2897C148.968 44.8798 147.303 41.2064 143.877 38.174C140.36 35.2362 136.195 33.6749 131.103 33.6749ZM121.662 41.4832C124.162 39.0953 127.217 37.808 131.103 37.808C134.807 37.808 137.862 38.9123 140.358 41.1154C142.861 43.3203 144.061 46.0751 144.061 49.3862C144.061 52.507 142.952 55.0797 140.821 57.2846C138.417 59.5815 135.269 60.7768 131.196 60.7768C127.401 60.7768 124.162 59.5824 121.661 57.2846C119.44 54.9896 118.329 52.4168 118.329 49.3862C118.33 46.3528 119.44 43.6899 121.662 41.4832Z" fill="#24292F"/>
<path d="M78.6255 13.3043C78.2007 12.985 77.7974 12.6384 77.4185 12.2665C69.5007 6.72341 60.0456 3.75421 50.3563 3.76812C24.3646 3.76812 3.29381 24.6904 3.29381 50.4997C3.27944 60.557 6.54663 70.3485 12.6065 78.4091C28.3555 73.7935 42.0957 65.7631 53.8712 54.1567C65.632 42.6058 73.8963 28.9346 78.6255 13.3043Z" fill="#E32934"/>
<path d="M50.3563 97.2313C76.3462 97.2313 97.417 76.3063 97.417 50.4989C97.417 41.3632 94.7753 32.8448 90.213 25.6483C90.0933 25.5296 89.9857 25.3994 89.892 25.2595C90.8496 28.396 91.3346 31.6559 91.3311 34.9332C91.3311 40.2362 90.0965 45.2551 87.6713 49.9544C85.273 54.4174 81.9016 58.293 77.8028 61.2987C74.5136 63.7066 70.5658 65.7477 65.9182 67.421C62.2189 68.7647 57.4071 70.1539 51.446 71.4986L34.257 75.3376C26.9494 77 20.2939 78.7788 14.3649 80.6005C22.997 90.7722 35.9153 97.2313 50.3563 97.2313Z" fill="#004883"/>
</g>
<defs>
<clipPath id="clip0_55_450">
<rect width="264.583" height="100" fill="white" transform="translate(0 0.5)"/>
</clipPath>
</defs>
</svg>
